# Blender 4.1.1
# www.blender.org
mtllib 17.mtl
o Key.105
v -0.007518 -0.023823 -0.241755
v -0.007518 -0.023823 -0.256326
v -0.007518 -0.000823 -0.241755
v 0.097541 -0.023823 -0.241755
v 0.097541 -0.023823 -0.256326
v 0.097542 -0.023823 -0.237577
v 0.097541 -0.000823 -0.241755
v 0.097541 -0.000823 -0.256326
v 0.145475 -0.000823 -0.241755
v 0.097542 -0.000823 -0.239670
v 0.145475 -0.000823 -0.239670
v 0.097542 -0.000854 -0.239306
v 0.145823 -0.000854 -0.239306
v 0.097542 -0.000944 -0.238954
v 0.146161 -0.000944 -0.238954
v 0.097542 -0.001092 -0.238624
v 0.146479 -0.001092 -0.238624
v 0.097542 -0.001293 -0.238325
v 0.146765 -0.001293 -0.238325
v 0.097542 -0.001540 -0.238067
v 0.147013 -0.001540 -0.238067
v 0.097542 -0.001827 -0.237858
v 0.147213 -0.001827 -0.237858
v 0.097542 -0.002144 -0.237704
v 0.147361 -0.002144 -0.237704
v 0.097542 -0.002482 -0.237609
v 0.147452 -0.002482 -0.237609
v 0.097542 -0.002615 -0.237577
v 0.147482 -0.002615 -0.237578
v 0.145970 -0.002615 -0.237578
v 0.145970 -0.002615 -0.241755
v 0.145970 -0.023823 -0.237578
v 0.145970 -0.023823 -0.260504
v 0.145970 -0.023823 -0.241755
v 0.145970 -0.023823 -0.256326
v 0.145970 -0.002615 -0.256326
v 0.147482 -0.002615 -0.256326
v 0.145970 -0.002615 -0.260504
v 0.097541 -0.002831 -0.260504
v 0.147482 -0.002615 -0.260504
v 0.147452 -0.002482 -0.260472
v 0.147361 -0.002144 -0.260378
v 0.097541 -0.002482 -0.260472
v 0.147452 -0.002482 -0.256326
v 0.147361 -0.002144 -0.256326
v 0.147452 -0.002482 -0.241755
v 0.147361 -0.002144 -0.241755
v 0.147482 -0.002615 -0.241755
v 0.147213 -0.001827 -0.241755
v 0.147013 -0.001540 -0.241755
v 0.147213 -0.001827 -0.256326
v 0.147013 -0.001540 -0.256326
v 0.147213 -0.001827 -0.260224
v 0.147013 -0.001540 -0.260014
v 0.097541 -0.001827 -0.260223
v 0.097541 -0.001540 -0.260014
v 0.097541 -0.002144 -0.260377
v 0.097541 -0.001293 -0.259756
v 0.097541 -0.001092 -0.259458
v 0.146765 -0.001293 -0.259757
v 0.146478 -0.001092 -0.259458
v 0.146765 -0.001293 -0.256326
v 0.146478 -0.001092 -0.256326
v 0.146765 -0.001293 -0.241755
v 0.146479 -0.001092 -0.241755
v 0.146161 -0.000944 -0.241755
v 0.145823 -0.000854 -0.241755
v 0.146161 -0.000944 -0.256326
v 0.145823 -0.000854 -0.256326
v 0.146161 -0.000944 -0.259127
v 0.145823 -0.000854 -0.258775
v 0.097541 -0.000944 -0.259127
v 0.097541 -0.000854 -0.258775
v 0.097541 -0.000823 -0.258412
v 0.145475 -0.000823 -0.258412
v 0.145475 -0.000823 -0.256326
v 0.097541 -0.023823 -0.260504
v -0.007518 -0.000823 -0.256326
vn -0.0000 -1.0000 -0.0000
vn -1.0000 -0.0000 -0.0000
vn -0.0000 -0.0000 1.0000
vn -0.0000 1.0000 -0.0000
vn 0.0436 0.9990 -0.0000
vn -0.0000 0.9991 0.0419
vn 0.0330 0.9990 0.0311
vn -0.0000 0.9860 0.1669
vn 0.1099 0.9884 0.1047
vn -0.0000 0.9440 0.3299
vn 0.1983 0.9614 0.1906
vn -0.0000 0.8746 0.4848
vn -0.0000 0.8553 0.5181
vn -0.0000 0.7787 0.6274
vn -0.0000 0.7556 0.6551
vn -0.0000 0.6580 0.7530
vn -0.0000 0.6334 0.7738
vn -0.0000 0.5153 0.8570
vn -0.0000 0.4920 0.8706
vn -0.0000 0.3544 0.9351
vn -0.0000 0.3361 0.9418
vn -0.0000 0.2505 0.9681
vn -0.0000 0.2477 0.9688
vn -0.0000 0.2318 0.9728
vn 1.0000 -0.0000 -0.0000
vn -0.0000 -0.0000 -1.0000
vn 0.9711 0.2385 -0.0000
vn 0.9705 0.2413 -0.0000
vn 0.9747 0.2236 -0.0000
vn 0.9747 0.2237 -0.0000
vn -0.0001 0.2004 -0.9797
vn -0.0002 0.1899 -0.9818
vn -0.0003 0.1308 -0.9914
vn 0.9463 0.3233 -0.0000
vn 0.9397 0.3420 -0.0000
vn -0.0000 0.3544 -0.9351
vn -0.0000 0.3361 -0.9418
vn 0.9705 0.2412 -0.0000
vn 0.9712 0.2384 -0.0000
vn 0.9747 0.2235 -0.0000
vn 0.8660 0.5000 -0.0000
vn 0.8795 0.4759 -0.0000
vn 0.7660 0.6428 -0.0000
vn 0.7661 0.6428 -0.0000
vn 0.7873 0.6166 -0.0000
vn -0.0000 0.6580 -0.7530
vn -0.0000 0.6334 -0.7738
vn -0.0000 0.4920 -0.8706
vn -0.0000 0.5153 -0.8570
vn -0.0000 0.7787 -0.6274
vn -0.0000 0.7555 -0.6551
vn -0.0000 0.8746 -0.4848
vn -0.0000 0.8553 -0.5181
vn 0.5354 0.8446 -0.0000
vn 0.5000 0.8660 -0.0000
vn 0.6428 0.7660 -0.0000
vn 0.6716 0.7409 -0.0000
vn 0.3420 0.9397 -0.0000
vn 0.1736 0.9848 -0.0000
vn 0.1099 0.9884 -0.1047
vn 0.1983 0.9614 -0.1906
vn -0.0000 0.9860 -0.1669
vn -0.0000 0.9440 -0.3299
vn -0.0000 0.9991 -0.0419
vn 0.0330 0.9990 -0.0311
vt 0.185606 0.500000
vt 0.328866 0.500000
vt 0.328866 0.668210
vt 0.185606 0.668210
vt 0.375000 0.310606
vt 0.625000 0.310606
vt 0.625000 0.453866
vt 0.375000 0.453866
vt 0.814394 0.500000
vt 0.814394 0.668210
vt 0.375000 0.081790
vt 0.831356 0.617022
vt 0.838355 0.626451
vt 0.844036 0.636425
vt 0.848338 0.646139
vt 0.851296 0.654538
vt 0.852988 0.660603
vt 0.853318 0.664355
vt 0.852076 0.666588
vt 0.849172 0.667814
vt 0.844649 0.668210
vt 0.671134 0.500000
vt 0.671134 0.668210
vt 0.814394 0.746712
vt 0.671134 0.746712
vt 0.844649 0.746712
vt 0.849919 0.668210
vt 0.849919 0.747283
vt 0.855029 0.668210
vt 0.855029 0.747837
vt 0.859824 0.668210
vt 0.859824 0.748356
vt 0.864158 0.668210
vt 0.864158 0.748826
vt 0.875000 0.668210
vt 0.875000 0.749231
vt 0.625000 0.000769
vt 0.625000 0.081790
vt 0.614089 0.081790
vt 0.614089 0.000441
vt 0.610641 0.081790
vt 0.610641 0.000198
vt 0.606967 0.081790
vt 0.606967 0.000050
vt 0.603178 0.081790
vt 0.603178 0.000000
vt 0.375000 1.000000
vt 0.603178 1.000000
vt 0.603178 0.939394
vt 0.375000 0.939394
vt 0.375000 0.668210
vt 0.375000 0.750000
vt 0.375000 0.796134
vt 0.603178 0.796134
vt 0.603178 0.750000
vt 0.603178 0.796134
vt 0.603178 0.668210
vt 0.606967 0.750351
vt 0.606967 0.796134
vt 0.607056 0.668210
vt 0.606967 0.749950
vt 0.603178 0.750000
vt 0.610641 0.751393
vt 0.610641 0.796134
vt 0.611006 0.668210
vt 0.610641 0.749802
vt 0.610642 0.796134
vt 0.610641 0.939394
vt 0.606967 0.939394
vt 0.606967 0.796134
vt 0.610642 0.939394
vt 0.610641 0.998170
vt 0.606967 0.999539
vt 0.614089 0.796134
vt 0.614089 0.939394
vt 0.614089 0.939394
vt 0.614089 0.995934
vt 0.617205 0.796134
vt 0.617205 0.939394
vt 0.617205 0.992899
vt 0.617205 0.755405
vt 0.617205 0.796134
vt 0.614089 0.796134
vt 0.614089 0.753095
vt 0.618765 0.668210
vt 0.617205 0.749231
vt 0.614089 0.749559
vt 0.614936 0.668210
vt 0.648104 0.668210
vt 0.643961 0.668210
vt 0.639686 0.668210
vt 0.635420 0.668210
vt 0.631322 0.668210
vt 0.633253 0.748826
vt 0.636552 0.748356
vt 0.671134 0.748356
vt 0.671134 0.750000
vt 0.633253 0.750000
vt 0.625000 0.758253
vt 0.625000 0.796134
vt 0.814394 0.748356
vt 0.814394 0.750000
vt 0.625000 0.939394
vt 0.864158 0.750000
vt 0.625000 0.989158
vt 0.671134 0.747837
vt 0.814394 0.747837
vt 0.814394 0.747837
vt 0.671134 0.747283
vt 0.814394 0.747283
vt 0.644092 0.747283
vt 0.671134 0.747837
vt 0.640202 0.747837
vt 0.648104 0.746712
s 1
usemtl Material:Key.106:Normal
f 1/1/1 2/2/1 5/3/1 4/4/1
f 1/5/2 3/6/2 78/7/2 2/8/2
f 3/9/3 1/1/3 4/4/3 7/10/3
f 4/4/2 6/11/2 28/12/2 26/13/2 24/14/2 22/15/2 20/16/2 18/17/2 16/18/2 14/19/2 12/20/2 10/21/2 7/10/2
f 78/22/4 3/9/4 7/10/4 8/23/4
f 8/23/4 7/10/4 9/24/5 76/25/5
f 7/10/4 10/21/6 11/26/7 9/24/5
f 11/26/7 10/21/6 12/27/8 13/28/9
f 13/28/9 12/27/8 14/29/10 15/30/11
f 15/30/11 14/29/10 16/31/12 17/32/13
f 17/32/13 16/31/12 18/33/14 19/34/15
f 19/34/15 18/33/14 20/35/16 21/36/17
f 21/37/17 20/38/16 22/39/18 23/40/19
f 23/40/19 22/39/18 24/41/20 25/42/21
f 25/42/21 24/41/20 26/43/22 27/44/23
f 27/44/23 26/43/22 28/45/24 29/46/24
f 28/12/3 6/11/3 32/47/3 30/48/3
f 48/49/1 29/48/1 30/48/1 31/49/1
f 34/50/25 31/49/25 30/48/25 32/47/25
f 32/47/1 6/11/1 77/51/1 33/52/1
f 35/53/25 36/54/25 31/49/25 34/50/25
f 33/52/25 38/55/25 36/56/25 35/53/25
f 40/55/1 37/56/1 36/56/1 38/55/1
f 37/54/1 48/49/1 31/49/1 36/54/1
f 33/52/26 77/51/26 39/57/26 38/55/26
f 41/58/27 44/59/28 37/56/29 40/55/30
f 43/60/31 41/61/32 40/62/33 39/57/33
f 42/63/34 45/64/35 44/59/28 41/58/27
f 57/65/36 42/66/37 41/61/32 43/60/31
f 45/67/35 47/68/35 46/69/38 44/70/28
f 44/70/28 46/69/38 48/49/29 37/54/29
f 47/71/35 25/72/34 27/73/39 46/69/38
f 46/69/38 27/73/39 29/48/40 48/49/29
f 51/74/41 49/75/41 47/68/35 45/67/35
f 49/76/41 23/77/42 25/72/34 47/71/35
f 52/78/43 50/79/44 49/75/41 51/74/41
f 50/79/44 21/80/45 23/77/42 49/76/41
f 54/81/45 52/82/43 51/83/41 53/84/42
f 53/84/42 51/83/41 45/64/35 42/63/34
f 56/85/46 54/86/47 53/87/48 55/88/49
f 55/88/49 53/87/48 42/66/37 57/65/36
f 8/23/2 74/89/2 73/90/2 72/91/2 59/92/2 58/93/2 56/85/2 55/88/2 57/65/2 43/60/2 39/57/2 77/51/2 5/3/2
f 58/93/50 60/94/51 54/86/47 56/85/46
f 59/92/52 61/95/53 60/94/51 58/93/50
f 61/95/54 63/96/55 62/97/56 60/98/57
f 60/99/57 62/100/56 52/82/43 54/81/45
f 63/96/55 65/101/55 64/102/56 62/97/56
f 62/100/56 64/103/56 50/79/44 52/78/43
f 65/101/55 17/32/54 19/104/57 64/102/56
f 64/103/56 19/105/57 21/80/45 50/79/44
f 68/106/58 66/107/58 65/101/55 63/96/55
f 66/108/58 15/30/11 17/32/54 65/101/55
f 69/109/59 67/110/59 66/107/58 68/106/58
f 67/110/59 13/28/9 15/30/11 66/108/58
f 71/111/60 69/109/59 68/112/58 70/113/61
f 70/113/61 68/112/58 63/96/55 61/95/54
f 73/90/62 71/111/60 70/113/61 72/91/63
f 72/91/63 70/113/61 61/95/53 59/92/52
f 74/89/64 75/114/65 71/111/60 73/90/62
f 74/89/64 8/23/4 76/25/5 75/114/65
f 75/114/65 76/25/5 69/109/59 71/111/60
f 76/25/5 9/24/5 67/110/59 69/109/59
f 9/24/5 11/26/7 13/28/9 67/110/59
f 2/2/26 78/22/26 8/23/26 5/3/26
