# Blender 4.1.1
# www.blender.org
mtllib 26.mtl
o Key.114
v -0.007518 -0.023823 -0.378711
v 0.097539 -0.023823 -0.378712
v -0.007518 -0.023823 -0.366113
v -0.007518 -0.002617 -0.378711
v -0.007518 -0.002267 -0.378676
v 0.097539 -0.002617 -0.378712
v 0.145968 -0.002617 -0.378712
v 0.097539 -0.002267 -0.378676
v 0.147482 -0.002617 -0.378712
v 0.147447 -0.002267 -0.378676
v 0.147482 -0.002617 -0.366225
v 0.147447 -0.002267 -0.366225
v 0.147482 -0.002617 -0.355786
v 0.145969 -0.002617 -0.366225
v 0.145969 -0.002617 -0.355786
v 0.145969 -0.023823 -0.366225
v 0.145968 -0.023823 -0.378712
v 0.145969 -0.023823 -0.355786
v 0.097539 -0.023823 -0.355786
v 0.097539 -0.023823 -0.366114
v 0.097539 -0.002617 -0.355786
v 0.097539 -0.002267 -0.355822
v 0.097539 -0.001931 -0.355928
v 0.147447 -0.002267 -0.355822
v 0.147345 -0.001931 -0.355928
v 0.147180 -0.001620 -0.356101
v 0.147345 -0.001931 -0.366225
v 0.147180 -0.001620 -0.366225
v 0.147345 -0.001931 -0.378570
v 0.147180 -0.001620 -0.378397
v 0.097539 -0.001931 -0.378570
v 0.097539 -0.001620 -0.378397
v -0.007518 -0.001931 -0.378569
v -0.007518 -0.001620 -0.378396
v -0.007518 -0.001349 -0.378164
v -0.007518 -0.001126 -0.377881
v 0.097539 -0.001349 -0.378164
v 0.097539 -0.001126 -0.377881
v 0.146956 -0.001349 -0.378165
v 0.146685 -0.001126 -0.377881
v 0.146957 -0.001349 -0.366225
v 0.146685 -0.001126 -0.366225
v 0.146957 -0.001349 -0.356333
v 0.146685 -0.001126 -0.356617
v 0.097539 -0.001349 -0.356333
v 0.097539 -0.001126 -0.356616
v 0.097539 -0.001620 -0.356101
v 0.097539 -0.000960 -0.356940
v 0.097539 -0.000858 -0.357290
v 0.146375 -0.000960 -0.356940
v 0.146038 -0.000858 -0.357290
v 0.146375 -0.000960 -0.366225
v 0.146038 -0.000858 -0.366225
v 0.146375 -0.000960 -0.377558
v 0.146038 -0.000858 -0.377207
v 0.097539 -0.000960 -0.377558
v 0.097539 -0.000858 -0.377207
v -0.007518 -0.000960 -0.377558
v -0.007518 -0.000858 -0.377207
v -0.007518 -0.000823 -0.376842
v 0.097539 -0.000823 -0.376843
v -0.007518 -0.000823 -0.366113
v 0.097539 -0.000823 -0.366114
v 0.145688 -0.000823 -0.366225
v 0.097539 -0.000823 -0.357655
v 0.145688 -0.000823 -0.357655
v 0.145688 -0.000823 -0.376843
vn -0.0000 -1.0000 -0.0000
vn -0.0000 -0.0000 -1.0000
vn -0.0000 0.0511 -0.9987
vn -1.0000 -0.0000 -0.0000
vn -0.0000 0.2027 -0.9792
vn -0.0000 0.1899 -0.9818
vn -0.0000 0.1020 -0.9948
vn 0.9833 0.1821 -0.0000
vn 0.9808 0.1951 -0.0000
vn 0.9952 0.0980 -0.0000
vn 1.0000 -0.0000 -0.0000
vn -0.0000 -0.0000 1.0000
vn -0.0000 0.1899 0.9818
vn -0.0000 0.2028 0.9792
vn -0.0000 0.1022 0.9948
vn -0.0000 0.3734 0.9277
vn -0.0000 0.3959 0.9183
vn 0.9239 0.3827 -0.0000
vn 0.9331 0.3596 -0.0000
vn -0.0000 0.5438 0.8392
vn -0.0000 0.5711 0.8209
vn 0.8315 0.5556 -0.0000
vn 0.8499 0.5270 -0.0000
vn -0.0000 0.5712 -0.8208
vn -0.0000 0.5438 -0.8392
vn -0.0000 0.3734 -0.9277
vn -0.0000 0.3960 -0.9183
vn -0.0000 0.7213 -0.6926
vn -0.0000 0.8416 -0.5401
vn -0.0000 0.8179 -0.5754
vn -0.0000 0.6939 -0.7201
vn 0.5928 0.8054 -0.0000
vn 0.5556 0.8315 -0.0000
vn 0.7071 0.7071 -0.0000
vn 0.7353 0.6777 -0.0000
vn -0.0000 0.8179 0.5754
vn -0.0000 0.8416 0.5401
vn -0.0000 0.7213 0.6927
vn -0.0000 0.6939 0.7201
vn 0.2234 0.9507 0.2151
vn -0.0000 0.9292 0.3696
vn 0.1237 0.9853 0.1179
vn -0.0000 0.9822 0.1876
vn 0.1951 0.9808 -0.0000
vn 0.3827 0.9239 -0.0000
vn 0.1237 0.9853 -0.1179
vn 0.2234 0.9507 -0.2151
vn -0.0000 0.9822 -0.1876
vn -0.0000 0.9292 -0.3696
vn -0.0000 0.9989 -0.0471
vn -0.0000 1.0000 -0.0000
vn 0.0491 0.9988 -0.0000
vn 0.0371 0.9987 -0.0350
vn -0.0000 0.9989 0.0471
vn 0.0371 0.9987 0.0350
vt 0.242188 0.500000
vt 0.375000 0.500000
vt 0.375000 0.668545
vt 0.242188 0.668545
vt 0.605503 0.500000
vt 0.605503 0.668545
vt 0.375000 0.367188
vt 0.625000 0.367188
vt 0.625000 0.480118
vt 0.624625 0.483997
vt 0.623516 0.487727
vt 0.621714 0.491164
vt 0.619289 0.494177
vt 0.616335 0.496649
vt 0.612964 0.498487
vt 0.609306 0.499618
vt 0.605503 0.500000
vt 0.609306 0.500000
vt 0.609306 0.668545
vt 0.375000 0.750000
vt 0.605503 0.750000
vt 0.609306 0.749944
vt 0.605503 0.750000
vt 0.605503 0.668545
vt 0.609306 0.750382
vt 0.609306 0.882812
vt 0.605503 0.882812
vt 0.609306 0.999597
vt 0.605503 1.000000
vt 0.605503 0.882812
vt 0.375000 0.882812
vt 0.375000 1.000000
vt 0.125000 0.668545
vt 0.586005 0.127242
vt 0.594059 0.119923
vt 0.602699 0.116251
vt 0.611604 0.116778
vt 0.620455 0.122315
vt 0.628927 0.133236
vt 0.636676 0.148454
vt 0.643383 0.166580
vt 0.648781 0.186580
vt 0.757812 0.668545
vt 0.609306 0.000056
vt 0.609306 0.081455
vt 0.605503 0.081455
vt 0.605503 0.000000
vt 0.612964 0.000223
vt 0.612964 0.081455
vt 0.612964 0.882812
vt 0.612964 0.998403
vt 0.616335 0.000493
vt 0.616335 0.081455
vt 0.616335 0.882812
vt 0.616335 0.996464
vt 0.616335 0.753351
vt 0.612964 0.882812
vt 0.612964 0.751513
vt 0.616335 0.668545
vt 0.616335 0.749507
vt 0.612964 0.749777
vt 0.612964 0.668545
vt 0.616335 0.500000
vt 0.612964 0.500000
vt 0.625000 0.500000
vt 0.625000 0.668545
vt 0.633836 0.500000
vt 0.633836 0.668545
vt 0.633836 0.748700
vt 0.625000 0.749143
vt 0.757812 0.748700
vt 0.757812 0.750000
vt 0.630823 0.750000
vt 0.625000 0.755823
vt 0.625000 0.882812
vt 0.865674 0.748700
vt 0.868854 0.750000
vt 0.625000 0.993854
vt 0.865674 0.668545
vt 0.875000 0.668545
vt 0.875000 0.749143
vt 0.625000 0.000857
vt 0.625000 0.081455
vt 0.862046 0.748194
vt 0.862046 0.668545
vt 0.858110 0.747645
vt 0.858110 0.668545
vt 0.757813 0.747645
vt 0.757812 0.748194
vt 0.641003 0.747645
vt 0.757812 0.747645
vt 0.637273 0.748194
vt 0.641003 0.668545
vt 0.637273 0.668545
vt 0.641003 0.500000
vt 0.637273 0.500000
vt 0.644882 0.500000
vt 0.644882 0.668545
vt 0.757812 0.500000
vt 0.757812 0.747074
vt 0.644882 0.747074
vt 0.854016 0.668545
vt 0.854016 0.747074
s 1
usemtl Material:Key.115:Normal
f 3/1/1 1/2/1 2/3/1 20/4/1
f 1/2/2 4/5/3 6/6/3 2/3/2
f 3/7/4 62/8/4 60/9/4 59/10/4 58/11/4 36/12/4 35/13/4 34/14/4 33/15/4 5/16/4 4/17/4 1/2/4
f 5/18/5 8/19/5 6/6/3 4/5/3
f 17/20/2 2/3/2 6/6/3 7/21/2
f 8/19/5 10/22/6 9/23/7 6/24/3
f 10/25/8 12/26/9 11/27/10 9/21/10
f 9/21/1 11/27/1 14/27/1 7/21/1
f 12/26/9 24/28/8 13/29/10 11/30/10
f 11/30/1 13/29/1 15/29/1 14/30/1
f 16/31/11 14/30/11 15/29/11 18/32/11
f 17/20/11 7/21/11 14/27/11 16/31/11
f 19/33/1 2/3/1 17/20/1 18/32/1
f 18/32/12 15/29/12 21/34/12 19/33/12
f 20/4/4 19/33/4 21/34/4 22/35/4 23/36/4 47/37/4 45/38/4 46/39/4 48/40/4 49/41/4 65/42/4 63/43/4
f 24/44/13 22/45/14 21/46/15 13/47/15
f 25/48/16 23/49/17 22/45/14 24/44/13
f 27/50/18 25/51/19 24/28/8 12/26/9
f 26/52/20 47/53/21 23/49/17 25/48/16
f 28/54/22 26/55/23 25/51/19 27/50/18
f 30/56/23 28/54/22 27/57/18 29/58/19
f 29/58/19 27/57/18 12/26/9 10/25/8
f 32/59/24 30/60/25 29/61/26 31/62/27
f 31/62/27 29/61/26 10/22/6 8/19/5
f 34/63/24 32/59/24 31/62/27 33/64/27
f 33/64/27 31/62/27 8/19/5 5/18/5
f 35/65/28 37/66/28 32/59/24 34/63/24
f 36/67/29 38/68/29 37/66/28 35/65/28
f 38/68/29 40/69/30 39/70/31 37/66/28
f 37/66/28 39/70/31 30/60/25 32/59/24
f 40/69/32 42/71/33 41/72/34 39/73/35
f 39/74/35 41/75/34 28/54/22 30/56/23
f 42/71/33 44/76/32 43/77/35 41/72/34
f 41/75/34 43/78/35 26/55/23 28/54/22
f 44/76/36 46/79/37 45/80/38 43/81/39
f 43/82/39 45/83/38 47/53/21 26/52/20
f 50/84/40 48/85/41 46/79/37 44/76/36
f 51/86/42 49/87/43 48/85/41 50/84/40
f 53/88/44 51/86/42 50/84/40 52/89/45
f 52/89/45 50/84/40 44/76/32 42/71/33
f 55/90/46 53/91/44 52/89/45 54/92/47
f 54/92/47 52/89/45 42/71/33 40/69/32
f 57/93/48 55/90/46 54/92/47 56/94/49
f 56/94/49 54/92/47 40/69/30 38/68/29
f 59/95/48 57/93/48 56/94/49 58/96/49
f 58/96/49 56/94/49 38/68/29 36/67/29
f 60/97/50 61/98/50 57/93/48 59/95/48
f 60/97/50 62/99/51 63/43/51 61/98/50
f 3/1/12 20/4/12 63/43/12 62/99/12
f 61/98/50 63/43/51 64/100/52 67/101/53
f 63/43/51 65/102/54 66/103/55 64/100/52
f 66/103/55 65/102/54 49/87/43 51/86/42
f 64/100/52 66/103/55 51/86/42 53/88/44
f 67/101/53 64/100/52 53/91/44 55/90/46
f 61/98/50 67/101/53 55/90/46 57/93/48
