# Blender 4.1.1
# www.blender.org
mtllib 35.mtl
o Key.123
v -0.007518 -0.023823 -0.491551
v -0.007519 -0.023823 -0.503014
v 0.000485 -0.023823 -0.491551
v -0.007518 -0.002061 -0.491551
v -0.007518 -0.001678 -0.491614
v 0.001722 -0.002252 -0.491551
v 0.001340 -0.001678 -0.491614
v 0.001722 0.007937 -0.491551
v 0.095102 -0.001015 -0.491551
v 0.095539 -0.001015 -0.491614
v 0.081933 -0.023823 -0.491551
v 0.090468 0.007937 -0.491551
v 0.090381 0.008318 -0.491620
v 0.090849 0.008037 -0.491620
v 0.090766 0.008423 -0.491693
v 0.091205 0.008107 -0.491801
v 0.091035 0.008513 -0.491842
v 0.091500 0.008139 -0.492086
v 0.095933 -0.001015 -0.491798
v 0.096245 -0.001015 -0.492083
v 0.082764 -0.023823 -0.491798
v 0.083077 -0.023823 -0.492083
v 0.082370 -0.023823 -0.491614
v 0.083277 -0.023823 -0.492442
v 0.083347 -0.023823 -0.492841
v 0.096446 -0.001015 -0.492443
v 0.096515 -0.001015 -0.492841
v 0.091703 0.008128 -0.492445
v 0.091804 0.008081 -0.492841
v 0.091442 0.008491 -0.492375
v 0.091561 0.008416 -0.492841
v 0.091169 0.008742 -0.492323
v 0.091257 0.008536 -0.492060
v 0.091077 0.008742 -0.492054
v 0.090910 0.008843 -0.492054
v 0.090954 0.008729 -0.491927
v 0.090723 0.008701 -0.491842
v 0.090281 0.008662 -0.491801
v 0.090642 0.008905 -0.492060
v 0.090175 0.008935 -0.492085
v 0.090519 0.009047 -0.492375
v 0.090074 0.009109 -0.492444
v 0.090397 0.009117 -0.492841
v 0.090869 0.008923 -0.492323
v 0.090824 0.008963 -0.492841
v 0.091226 0.008721 -0.492841
v 0.090845 0.008994 -0.501725
v 0.090411 0.009140 -0.501725
v 0.090834 0.008920 -0.502109
v 0.091247 0.008752 -0.501725
v 0.091183 0.008709 -0.502109
v 0.091577 0.008437 -0.501725
v 0.091804 0.008081 -0.501725
v 0.091497 0.008410 -0.502122
v 0.091726 0.008055 -0.502123
v 0.091315 0.008370 -0.502463
v 0.091529 0.008025 -0.502483
v 0.091058 0.008342 -0.502711
v 0.091069 0.008634 -0.502405
v 0.090817 0.008785 -0.502405
v 0.090884 0.008614 -0.502584
v 0.090559 0.008642 -0.502711
v 0.090166 0.008636 -0.502768
v 0.090706 0.008325 -0.502886
v 0.090467 0.008880 -0.502463
v 0.090060 0.008910 -0.502483
v 0.090422 0.009058 -0.502122
v 0.089998 0.009095 -0.502123
v 0.089988 0.009175 -0.501725
v 0.001722 0.009114 -0.502123
v 0.001722 0.009175 -0.501725
v 0.001341 0.009051 -0.502122
v 0.001722 0.008938 -0.502482
v 0.001354 0.008883 -0.502462
v 0.001722 0.008664 -0.502768
v 0.001722 0.008319 -0.502951
v 0.001354 0.008645 -0.502710
v 0.001341 0.008318 -0.502885
v 0.001069 0.008590 -0.502583
v 0.001014 0.008305 -0.502710
v 0.000898 0.008590 -0.502405
v 0.001069 0.008761 -0.502405
v 0.001014 0.008883 -0.502108
v 0.000995 0.008938 -0.501725
v 0.000776 0.008645 -0.502108
v 0.000721 0.008664 -0.501725
v 0.000608 0.008318 -0.502122
v 0.000545 0.008319 -0.501725
v 0.000545 0.007937 -0.502123
v 0.000776 0.008305 -0.502462
v 0.000721 0.007937 -0.502482
v 0.000995 0.007937 -0.502768
v 0.000721 -0.001060 -0.502483
v 0.000545 -0.000884 -0.502123
v -0.007519 -0.001060 -0.502483
v 0.000995 -0.001333 -0.502768
v -0.007519 -0.001333 -0.502768
v 0.001340 -0.001678 -0.502951
v -0.007519 -0.001678 -0.502951
v 0.001722 -0.002252 -0.503014
v 0.001340 0.007937 -0.502951
v 0.001722 0.007937 -0.503014
v 0.090468 0.007937 -0.503015
v 0.090868 0.007963 -0.502951
v 0.090306 0.008301 -0.502951
v 0.095102 -0.001015 -0.503015
v 0.095539 -0.001015 -0.502951
v 0.081933 -0.023823 -0.503015
v 0.082370 -0.023823 -0.502951
v 0.000485 -0.023823 -0.503014
v 0.082764 -0.023823 -0.502768
v 0.083077 -0.023823 -0.502483
v 0.095933 -0.001015 -0.502768
v 0.096245 -0.001015 -0.502483
v 0.091233 0.007993 -0.502768
v 0.096446 -0.001015 -0.502123
v 0.096515 -0.001015 -0.501725
v 0.083277 -0.023823 -0.502123
v 0.083347 -0.023823 -0.501725
v -0.007519 -0.002061 -0.503014
v -0.007519 -0.000884 -0.502123
v -0.007519 -0.000823 -0.501725
v 0.000485 -0.000823 -0.501725
v -0.007518 -0.000823 -0.492841
v 0.000485 -0.000823 -0.492841
v -0.007518 -0.000884 -0.492442
v 0.000545 -0.000884 -0.492442
v -0.007518 -0.001060 -0.492083
v 0.000721 -0.001060 -0.492083
v -0.007518 -0.001333 -0.491797
v 0.000995 -0.001333 -0.491797
v 0.000995 0.007937 -0.491797
v 0.001340 0.007937 -0.491614
v 0.001014 0.008305 -0.491855
v 0.000721 0.007937 -0.492083
v 0.000545 0.007937 -0.492442
v 0.000776 0.008305 -0.492103
v 0.000608 0.008318 -0.492444
v 0.000898 0.008590 -0.492160
v 0.000776 0.008645 -0.492457
v 0.001069 0.008761 -0.492160
v 0.001069 0.008590 -0.491982
v 0.001354 0.008645 -0.491855
v 0.001722 0.008664 -0.491797
v 0.001341 0.008318 -0.491680
v 0.001354 0.008883 -0.492103
v 0.001722 0.008938 -0.492083
v 0.001341 0.009051 -0.492444
v 0.001340 0.009114 -0.492841
v 0.001722 0.009114 -0.492442
v 0.001014 0.008883 -0.492457
v 0.000995 0.008938 -0.492841
v 0.000721 0.008664 -0.492841
v 0.000545 0.008319 -0.492841
v 0.000485 0.007937 -0.492841
v 0.000485 0.007937 -0.501725
v 0.001722 0.009175 -0.492841
v 0.089988 0.009175 -0.492841
v 0.001340 0.009114 -0.501725
v 0.001722 0.008319 -0.491614
vn -0.0000 -1.0000 -0.0000
vn -1.0000 -0.0000 -0.0000
vn -0.0000 -0.0000 1.0000
vn -0.0152 0.0202 0.9997
vn 0.0007 0.0667 0.9978
vn -0.1298 0.1092 0.9855
vn 0.0007 0.3051 0.9523
vn -0.3186 0.0808 0.9444
vn -0.0820 0.0839 0.9931
vn 0.0966 -0.0021 0.9953
vn 0.0626 0.1041 0.9926
vn 0.0479 -0.0276 0.9985
vn 0.3272 -0.0096 0.9449
vn 0.2611 0.1850 0.9474
vn 0.2376 -0.1372 0.9616
vn 0.0425 0.3195 0.9466
vn -0.0808 0.3198 0.9440
vn 0.2122 0.3536 0.9110
vn 0.5234 0.2856 0.8028
vn 0.4782 0.3962 0.7838
vn 0.5854 -0.0158 0.8106
vn 0.7242 0.3969 0.5639
vn 0.6943 0.5066 0.5112
vn 0.7404 0.3841 0.5517
vn 0.6975 -0.4027 0.5927
vn 0.7280 -0.4203 0.5417
vn 0.4962 -0.2865 0.8196
vn 0.8234 -0.4754 0.3098
vn 0.8316 -0.4801 0.2791
vn 0.8635 -0.4985 0.0765
vn 0.8637 -0.4987 0.0724
vn 0.8852 0.4587 0.0781
vn 0.8570 0.5102 0.0728
vn 0.8266 0.4884 0.2798
vn 0.8497 0.4406 0.2896
vn 0.7605 0.6475 0.0482
vn 0.7555 0.6143 0.2275
vn 0.6036 0.7970 0.0202
vn 0.6139 0.7765 0.1421
vn 0.5875 0.6943 0.4156
vn 0.3735 0.6205 0.6895
vn 0.3996 0.9057 0.1414
vn 0.3395 0.8445 0.4142
vn 0.1271 0.6101 0.7820
vn 0.1237 0.8521 0.5086
vn 0.0103 0.5998 0.8001
vn 0.0156 0.8283 0.5601
vn 0.0490 0.9596 0.2771
vn 0.1899 0.9555 0.2259
vn 0.0552 0.9959 0.0718
vn 0.2171 0.9750 0.0478
vn 0.4223 0.9062 0.0201
vn 0.4193 0.9034 -0.0897
vn 0.6028 0.7927 -0.0903
vn 0.2095 0.9732 -0.0947
vn 0.4032 0.8679 -0.2903
vn 0.1938 0.9295 -0.3139
vn 0.5786 0.7618 -0.2913
vn 0.7632 0.6390 -0.0962
vn 0.7311 0.6041 -0.3171
vn 0.8591 0.5032 -0.0937
vn 0.8193 0.4736 -0.3233
vn 0.7034 0.4146 -0.5773
vn 0.6342 0.5476 -0.5458
vn 0.5244 0.7002 -0.4846
vn 0.5188 0.3256 -0.7904
vn 0.4736 0.4838 -0.7359
vn 0.3964 0.6583 -0.6399
vn 0.3739 0.7915 -0.4835
vn 0.2071 0.6464 -0.7344
vn 0.1890 0.8182 -0.5429
vn 0.2500 0.4151 -0.8747
vn 0.0479 0.6142 -0.7877
vn 0.0413 0.8184 -0.5731
vn 0.0612 0.3458 -0.9363
vn 0.0403 0.9469 -0.3191
vn 0.0484 0.9946 -0.0918
vn -0.0788 0.9936 -0.0814
vn -0.0781 0.9491 -0.3052
vn -0.0748 0.8164 -0.5726
vn -0.3022 0.9078 -0.2907
vn -0.3079 0.9485 -0.0749
vn -0.2846 0.7835 -0.5524
vn -0.0758 0.6012 -0.7955
vn -0.2877 0.5804 -0.7618
vn -0.0808 0.3210 -0.9436
vn -0.3107 0.3107 -0.8983
vn -0.5804 0.2877 -0.7618
vn -0.5231 0.5231 -0.6728
vn -0.5188 0.6947 -0.4982
vn -0.7834 0.2846 -0.5525
vn -0.6948 0.5188 -0.4982
vn -0.5690 0.7764 -0.2711
vn -0.7763 0.5691 -0.2711
vn -0.5855 0.8075 -0.0710
vn -0.8075 0.5855 -0.0710
vn -0.9485 0.3079 -0.0749
vn -0.9078 0.3022 -0.2907
vn -0.9940 0.0788 -0.0757
vn -0.9516 0.0782 -0.2971
vn -0.8180 0.0749 -0.5704
vn -0.6000 0.0759 -0.7964
vn -0.7915 -0.0000 -0.6112
vn -0.5495 -0.0000 -0.8355
vn -0.9467 -0.0000 -0.3223
vn -0.0000 0.9545 -0.2982
vn -0.0000 0.9467 -0.3222
vn -0.0000 0.7915 -0.6112
vn -0.0000 0.8198 -0.5727
vn -0.0000 0.5496 -0.8355
vn -0.0000 0.6029 -0.7978
vn -0.1298 0.1092 -0.9855
vn 0.0007 0.3051 -0.9523
vn -0.3186 0.0808 -0.9444
vn -0.0152 0.0202 -0.9997
vn 0.0007 0.0667 -0.9978
vn -0.0820 0.0830 -0.9932
vn 0.0701 0.1162 -0.9907
vn 0.0956 -0.0026 -0.9954
vn 0.2759 0.2137 -0.9371
vn 0.3292 -0.0085 -0.9442
vn 0.2376 -0.1372 -0.9616
vn 0.0478 -0.0276 -0.9985
vn -0.0000 -0.0000 -1.0000
vn 0.5867 -0.0144 -0.8097
vn 0.4961 -0.2865 -0.8196
vn 0.7279 -0.4203 -0.5417
vn 0.6975 -0.4027 -0.5928
vn 0.7358 0.3836 -0.5581
vn 0.8452 0.4395 -0.3041
vn 0.8316 -0.4801 -0.2791
vn 0.8234 -0.4754 -0.3098
vn 0.8844 0.4587 -0.0862
vn 0.8638 -0.4987 -0.0725
vn 0.8635 -0.4985 -0.0765
vn -0.0000 0.9972 -0.0754
vn -0.0000 0.9969 -0.0788
vn -0.0000 0.9972 0.0754
vn -0.0000 0.9969 0.0788
vn -0.0000 0.9545 0.2982
vn -0.0000 0.9466 0.3223
vn -0.0000 0.8198 0.5727
vn -0.0000 0.7915 0.6111
vn -0.0000 0.6029 0.7978
vn -0.0000 0.5496 0.8354
vn -0.8180 0.0749 0.5704
vn -0.7915 -0.0000 0.6111
vn -0.5496 -0.0000 0.8355
vn -0.6000 0.0759 0.7964
vn -0.3107 0.3107 0.8983
vn -0.5803 0.2877 0.7618
vn -0.7834 0.2846 0.5525
vn -0.9516 0.0782 0.2971
vn -0.9466 -0.0000 0.3223
vn -0.9078 0.3022 0.2907
vn -0.6947 0.5188 0.4982
vn -0.7763 0.5690 0.2711
vn -0.5231 0.5231 0.6728
vn -0.5690 0.7764 0.2711
vn -0.5188 0.6947 0.4982
vn -0.2877 0.5803 0.7618
vn -0.2846 0.7835 0.5525
vn -0.0759 0.5995 0.7968
vn -0.0749 0.8183 0.5699
vn -0.0782 0.9513 0.2982
vn -0.3022 0.9078 0.2907
vn -0.3079 0.9485 0.0749
vn -0.5855 0.8076 0.0710
vn -0.0788 0.9939 0.0774
vn -0.8075 0.5855 0.0710
vn -0.9485 0.3079 0.0749
vn -0.9940 0.0788 0.0757
vn -0.9969 -0.0000 0.0788
vn -0.9969 -0.0000 -0.0788
vt 0.125000 0.500000
vt 0.375000 0.500000
vt 0.375000 0.625000
vt 0.125000 0.625000
vt 0.375000 0.250000
vt 0.611549 0.250000
vt 0.615705 0.251377
vt 0.619455 0.255371
vt 0.622431 0.261594
vt 0.624342 0.269434
vt 0.625000 0.278125
vt 0.625000 0.471875
vt 0.624342 0.480566
vt 0.622431 0.488406
vt 0.619455 0.494629
vt 0.615705 0.498623
vt 0.611549 0.500000
vt 0.375000 0.125000
vt 0.611549 0.105671
vt 0.611549 0.250000
vt 0.615705 0.111644
vt 0.615705 0.250000
vt 0.625000 0.123852
vt 0.625000 0.123942
vt 0.625000 0.123473
vt 0.625000 0.123334
vt 0.625000 0.001829
vt 0.625000 0.001880
vt 0.375000 0.002118
vt 0.625000 0.001829
vt 0.611549 0.123330
vt 0.625000 0.001264
vt 0.625000 0.001298
vt 0.375000 0.001464
vt 0.625000 0.001264
vt 0.625000 0.001735
vt 0.625000 0.123329
vt 0.625000 0.001142
vt 0.625000 0.000774
vt 0.625000 0.000717
vt 0.625000 0.000754
vt 0.625000 0.000000
vt 0.375000 0.000000
vt 0.623735 0.000000
vt 0.625000 0.000754
vt 0.375000 0.000873
vt 0.375000 0.747882
vt 0.373623 0.748536
vt 0.369629 0.749127
vt 0.363406 0.749595
vt 0.355566 0.749896
vt 0.346875 0.750000
vt 0.153125 0.750000
vt 0.144434 0.749896
vt 0.136594 0.749595
vt 0.130371 0.749127
vt 0.126377 0.748536
vt 0.125000 0.747882
vt 0.374676 0.980566
vt 0.624676 0.980566
vt 0.623735 1.000000
vt 0.375000 1.000000
vt 0.375000 0.971875
vt 0.625000 0.971875
vt 0.625000 0.980522
vt 0.625000 0.980566
vt 0.625000 1.000000
vt 0.625000 1.000000
vt 0.625000 0.982047
vt 0.625000 1.000000
vt 0.625000 0.983165
vt 0.625000 0.989036
vt 0.625000 0.000371
vt 0.858165 0.750000
vt 0.858166 0.749512
vt 0.864036 0.749569
vt 0.864036 0.750000
vt 0.875000 0.749629
vt 0.625000 0.000688
vt 0.863903 0.749202
vt 0.875000 0.749312
vt 0.625000 0.001293
vt 0.863352 0.748561
vt 0.875000 0.748707
vt 0.855523 0.748424
vt 0.857048 0.749033
vt 0.846875 0.748305
vt 0.846875 0.748866
vt 0.846875 0.749451
vt 0.846875 0.750000
vt 0.653125 0.749479
vt 0.653125 0.750000
vt 0.653125 0.748886
vt 0.644755 0.749464
vt 0.644464 0.748900
vt 0.644755 0.750000
vt 0.625000 0.778125
vt 0.625000 0.769464
vt 0.625000 0.769755
vt 0.625000 0.769432
vt 0.625000 0.761596
vt 0.625000 0.762039
vt 0.625000 0.763290
vt 0.625000 0.749184
vt 0.625000 0.749194
vt 0.625000 0.749149
vt 0.638290 0.750000
vt 0.638290 0.749441
vt 0.634394 0.749533
vt 0.625000 0.748730
vt 0.637039 0.748962
vt 0.625000 0.748709
vt 0.625000 0.748190
vt 0.636596 0.748404
vt 0.625000 0.748152
vt 0.644432 0.748320
vt 0.653125 0.748305
vt 0.653125 0.626695
vt 0.644432 0.626695
vt 0.636596 0.626695
vt 0.644464 0.626173
vt 0.653125 0.626171
vt 0.637039 0.626190
vt 0.625000 0.626678
vt 0.625000 0.626176
vt 0.625000 0.626671
vt 0.625000 0.626153
vt 0.625000 0.625711
vt 0.625000 0.625788
vt 0.638290 0.625801
vt 0.637039 0.625000
vt 0.638290 0.625000
vt 0.644755 0.625725
vt 0.644755 0.625000
vt 0.653125 0.625699
vt 0.653125 0.625000
vt 0.653125 0.625000
vt 0.644464 0.625000
vt 0.653125 0.625000
vt 0.644433 0.625000
vt 0.636596 0.625000
vt 0.625000 0.625683
vt 0.636594 0.626846
vt 0.622228 0.629300
vt 0.644434 0.625473
vt 0.644434 0.500000
vt 0.636594 0.500000
vt 0.619455 0.500000
vt 0.620353 0.632207
vt 0.615705 0.500000
vt 0.625000 0.626148
vt 0.611549 0.644329
vt 0.611549 0.500000
vt 0.625000 0.626666
vt 0.625000 0.626527
vt 0.625000 0.748120
vt 0.625000 0.748171
vt 0.625000 0.748675
vt 0.625000 0.748736
vt 0.375000 0.748536
vt 0.611549 0.626670
vt 0.625000 0.749246
vt 0.375000 0.749127
vt 0.624368 0.761594
vt 0.373735 0.761594
vt 0.624838 0.769434
vt 0.374676 0.769434
vt 0.375000 0.778125
vt 0.653125 0.500000
vt 0.846875 0.500000
vt 0.846875 0.625000
vt 0.855566 0.500000
vt 0.855566 0.625946
vt 0.875000 0.500000
vt 0.875000 0.625000
vt 0.625000 0.125000
vt 0.625000 0.250000
vt 0.619455 0.250000
vt 0.619455 0.117032
vt 0.625000 0.124367
vt 0.625000 0.124317
vt 0.625000 0.123847
vt 0.625000 0.124289
vt 0.855568 0.625000
vt 0.855566 0.625000
vt 0.855536 0.625000
vt 0.861710 0.625000
vt 0.855245 0.625000
vt 0.625000 0.124199
vt 0.625000 0.124444
vt 0.855245 0.625725
vt 0.861710 0.625801
vt 0.875000 0.625801
vt 0.861710 0.625566
vt 0.875000 0.626190
vt 0.862961 0.626190
vt 0.625000 0.123810
vt 0.875000 0.626695
vt 0.863404 0.626695
vt 0.625000 0.123305
vt 0.855567 0.626695
vt 0.855536 0.626173
vt 0.846875 0.626171
vt 0.846875 0.625699
vt 0.846875 0.626695
vt 0.846875 0.625000
vt 0.846875 0.625000
s 1
usemtl Material:Key.124:Normal
f 1/1/1 2/2/1 110/3/1 3/4/1
f 1/5/2 4/6/2 5/7/2 130/8/2 128/9/2 126/10/2 124/11/2 122/12/2 121/13/2 95/14/2 97/15/2 99/16/2 120/17/2 2/2/2
f 3/18/3 6/19/4 4/20/5 1/5/3
f 7/21/6 5/22/7 4/20/5 6/19/4
f 133/23/8 7/24/6 6/25/4 8/26/9
f 6/25/4 9/27/10 12/28/11 8/26/9
f 11/29/12 9/30/10 6/31/4 3/18/3
f 10/32/13 14/33/14 12/28/11 9/27/10
f 23/34/15 10/35/13 9/30/10 11/29/12
f 13/36/16 160/37/17 8/26/9 12/28/11
f 12/28/11 14/33/14 15/38/18 13/36/16
f 14/33/14 16/39/19 17/40/20 15/38/18
f 19/41/21 16/39/19 14/33/14 10/32/13
f 16/39/19 18/42/22 33/42/23 17/40/20
f 20/42/24 18/42/22 16/39/19 19/41/21
f 22/43/25 20/44/26 19/45/21 21/46/27
f 21/46/27 19/45/21 10/35/13 23/34/15
f 3/4/1 110/3/1 108/47/1 109/48/1 111/49/1 112/50/1 118/51/1 119/52/1 25/53/1 24/54/1 22/55/1 21/56/1 23/57/1 11/58/1
f 24/59/28 26/60/29 20/61/26 22/62/25
f 25/63/30 27/64/31 26/60/29 24/59/28
f 27/64/32 29/64/33 28/65/34 26/66/35
f 26/66/35 28/65/34 18/67/22 20/68/24
f 29/64/33 31/64/36 30/69/37 28/65/34
f 28/65/34 30/69/37 33/70/23 18/67/22
f 31/64/36 46/64/38 32/71/39 30/69/37
f 30/69/37 32/71/39 34/72/40 33/70/23
f 17/40/20 33/42/23 34/42/40 36/73/41
f 32/74/39 44/75/42 35/76/43 34/77/40
f 34/77/40 35/76/43 36/78/41
f 15/38/18 17/40/20 36/73/41 37/79/44
f 39/80/45 37/81/44 36/78/41 35/76/43
f 13/36/16 15/38/18 37/79/44 38/82/46
f 40/83/47 38/84/46 37/81/44 39/80/45
f 42/85/48 40/83/47 39/80/45 41/86/49
f 41/86/49 39/80/45 35/76/43 44/75/42
f 158/87/50 42/85/48 41/86/49 43/88/51
f 43/88/51 41/86/49 44/75/42 45/89/52
f 46/90/38 45/89/52 44/75/42 32/74/39
f 47/91/53 45/89/52 46/90/38 50/92/54
f 48/93/55 43/88/51 45/89/52 47/91/53
f 48/93/55 47/91/53 49/94/56 67/95/57
f 47/91/53 50/92/54 51/96/58 49/94/56
f 52/97/59 54/98/60 51/99/58 50/97/54
f 50/97/54 46/64/38 31/64/36 52/97/59
f 52/97/59 31/64/36 29/64/33 53/97/61
f 53/97/61 55/100/62 54/98/60 52/97/59
f 55/100/62 57/101/63 56/102/64 54/98/60
f 54/98/60 56/102/64 59/103/65 51/99/58
f 57/101/63 115/104/66 58/105/67 56/102/64
f 56/102/64 58/105/67 61/106/68 59/103/65
f 49/94/56 51/96/58 59/107/65 60/108/69
f 61/109/68 60/108/69 59/107/65
f 62/110/70 65/111/71 60/108/69 61/106/68
f 64/112/72 62/110/70 61/106/68 58/105/67
f 63/113/73 66/114/74 65/111/71 62/110/70
f 105/115/75 63/113/73 62/110/70 64/112/72
f 68/116/76 67/95/57 65/111/71 66/114/74
f 67/95/57 49/94/56 60/108/69 65/111/71
f 69/117/77 48/93/55 67/95/57 68/116/76
f 71/118/78 69/117/77 68/116/76 70/119/79
f 70/119/79 68/116/76 66/114/74 73/120/80
f 71/118/78 70/119/79 72/121/81 159/122/82
f 70/119/79 73/120/80 74/123/83 72/121/81
f 73/120/80 75/124/84 77/125/85 74/123/83
f 73/120/80 66/114/74 63/113/73 75/124/84
f 75/124/84 63/113/73 105/115/75 76/126/86
f 76/126/86 78/127/87 77/125/85 75/124/84
f 78/127/87 80/128/88 79/129/89 77/125/85
f 74/123/83 77/125/85 79/129/89 82/130/90
f 80/128/88 90/131/91 81/132/92 79/129/89
f 79/129/89 81/132/92 82/130/90
f 72/121/81 74/123/83 82/130/90 83/133/93
f 85/134/94 83/133/93 82/130/90 81/132/92
f 159/122/82 72/121/81 83/133/93 84/135/95
f 86/136/96 84/135/95 83/133/93 85/134/94
f 88/137/97 86/136/96 85/134/94 87/138/98
f 87/138/98 85/134/94 81/132/92 90/131/91
f 156/139/99 88/137/97 87/138/98 89/140/100
f 89/140/100 87/138/98 90/131/91 91/141/101
f 92/142/102 91/141/101 90/131/91 80/128/88
f 93/143/103 91/141/101 92/142/102 96/144/104
f 94/145/105 89/140/100 91/141/101 93/143/103
f 121/146/106 94/145/107 93/143/108 95/147/109
f 95/147/109 93/143/108 96/144/110 97/148/111
f 97/148/111 96/144/110 98/149/112 99/150/113
f 96/144/104 92/142/102 101/151/114 98/149/112
f 99/150/113 98/149/112 100/152/115 120/153/116
f 98/149/112 101/151/114 102/154/117 100/155/115
f 102/154/117 101/151/114 78/127/87 76/126/86
f 101/151/114 92/142/102 80/128/88 78/127/87
f 76/126/86 105/115/75 103/156/118 102/154/117
f 106/157/119 100/155/115 102/154/117 103/156/118
f 104/158/120 107/159/121 106/157/119 103/156/118
f 103/156/118 105/115/75 64/112/72 104/158/120
f 107/159/121 109/160/122 108/47/123 106/157/119
f 110/3/124 100/161/115 106/157/119 108/47/123
f 2/2/124 120/153/116 100/152/115 110/3/124
f 113/162/125 111/163/126 109/160/122 107/159/121
f 114/164/127 112/165/128 111/163/126 113/162/125
f 57/101/63 114/164/129 113/162/125 115/104/66
f 115/104/66 113/162/125 107/159/121 104/158/120
f 104/158/120 64/112/72 58/105/67 115/104/66
f 55/100/62 116/166/130 114/164/129 57/101/63
f 116/166/131 118/167/132 112/165/128 114/164/127
f 53/97/61 117/97/133 116/166/130 55/100/62
f 117/97/134 119/168/135 118/167/132 116/166/131
f 119/168/135 117/97/134 27/64/31 25/63/30
f 27/64/32 117/97/133 53/97/61 29/64/33
f 122/169/136 123/139/137 94/145/107 121/146/106
f 122/169/136 124/170/138 125/171/139 123/139/137
f 125/171/139 124/170/138 126/172/140 127/173/141
f 127/173/141 126/172/140 128/174/142 129/175/143
f 129/176/143 128/177/142 130/178/144 131/179/145
f 131/179/145 130/178/144 5/22/7 7/21/6
f 135/176/146 129/176/147 131/180/148 132/181/149
f 132/181/149 131/180/148 7/24/6 133/23/8
f 133/23/8 145/182/150 134/183/151 132/181/149
f 135/176/146 132/181/149 134/183/151 137/176/152
f 136/184/153 127/185/154 129/175/147 135/175/146
f 136/184/153 135/175/146 137/175/152 138/186/155
f 138/186/155 137/175/152 139/187/156 140/188/157
f 137/176/152 134/183/151 142/189/158 139/190/156
f 151/191/159 140/188/157 139/187/156 141/192/160
f 142/193/158 141/192/160 139/194/156
f 143/195/161 146/196/162 141/192/160 142/193/158
f 145/182/150 143/197/161 142/189/158 134/183/151
f 144/198/163 147/199/164 146/196/162 143/195/161
f 160/37/17 144/200/163 143/197/161 145/182/150
f 150/201/165 148/202/166 146/196/162 147/199/164
f 148/202/166 151/191/159 141/192/160 146/196/162
f 149/203/167 152/204/168 151/191/159 148/202/166
f 157/205/169 149/203/167 148/202/166 150/201/165
f 152/204/168 153/206/170 140/188/157 151/191/159
f 149/203/167 159/122/82 84/135/95 152/204/168
f 152/204/168 84/135/95 86/136/96 153/206/170
f 154/207/171 138/186/155 140/188/157 153/206/170
f 153/206/170 86/136/96 88/137/97 154/207/171
f 154/207/171 88/137/97 156/139/99 155/206/172
f 155/206/172 136/184/153 138/186/155 154/207/171
f 155/206/172 125/171/173 127/185/154 136/184/153
f 123/139/174 125/171/173 155/206/172 156/139/99
f 123/139/174 156/139/99 89/140/100 94/145/105
f 158/87/50 157/205/169 150/201/165 42/85/48
f 42/85/48 150/201/165 147/199/164 40/83/47
f 157/205/169 71/118/78 159/122/82 149/203/167
f 71/118/78 157/205/169 158/87/50 69/117/77
f 69/117/77 158/87/50 43/88/51 48/93/55
f 40/83/47 147/199/164 144/198/163 38/84/46
f 8/26/9 160/37/17 145/182/150 133/23/8
f 38/82/46 144/200/163 160/37/17 13/36/16
