# Blender 4.1.1
# www.blender.org
mtllib 43.mtl
o Key.131
v -0.007519 -0.023823 -0.615139
v -0.007519 -0.023823 -0.601570
v 0.097543 -0.023823 -0.615139
v -0.007519 -0.002573 -0.615139
v -0.007519 -0.002269 -0.615111
v 0.097543 -0.002573 -0.615139
v 0.145970 -0.002573 -0.615140
v 0.097543 -0.002269 -0.615112
v 0.147481 -0.002573 -0.615140
v 0.147455 -0.002269 -0.615112
v 0.147481 -0.002573 -0.601570
v 0.147455 -0.002269 -0.601570
v 0.147481 -0.002573 -0.592213
v 0.145970 -0.002573 -0.601570
v 0.145970 -0.002573 -0.592213
v 0.145970 -0.023823 -0.601570
v 0.145970 -0.023823 -0.592213
v 0.145970 -0.023823 -0.615140
v 0.097543 -0.023823 -0.592213
v 0.097543 -0.023823 -0.601570
v 0.097543 -0.002573 -0.592213
v 0.097543 -0.002269 -0.592241
v 0.097543 -0.001974 -0.592323
v 0.147455 -0.002269 -0.592241
v 0.147376 -0.001975 -0.592323
v 0.147247 -0.001698 -0.592458
v 0.147376 -0.001975 -0.601570
v 0.147247 -0.001698 -0.601570
v 0.147376 -0.001975 -0.615030
v 0.147247 -0.001698 -0.614895
v 0.097543 -0.001974 -0.615030
v 0.097543 -0.001698 -0.614895
v -0.007519 -0.001974 -0.615029
v -0.007519 -0.001698 -0.614895
v -0.007519 -0.001448 -0.614713
v -0.007519 -0.001233 -0.614488
v 0.097543 -0.001448 -0.614713
v 0.097543 -0.001233 -0.614488
v 0.147072 -0.001448 -0.614713
v 0.146856 -0.001233 -0.614488
v 0.147072 -0.001448 -0.601570
v 0.146856 -0.001233 -0.601570
v 0.147072 -0.001448 -0.592640
v 0.146856 -0.001233 -0.592865
v 0.097543 -0.001448 -0.592640
v 0.097543 -0.001233 -0.592865
v 0.097543 -0.001698 -0.592458
v 0.097543 -0.001058 -0.593125
v 0.097543 -0.000929 -0.593413
v 0.146606 -0.001058 -0.593125
v 0.146330 -0.000929 -0.593413
v 0.146606 -0.001058 -0.601570
v 0.146330 -0.000929 -0.601570
v 0.146606 -0.001058 -0.614228
v 0.146330 -0.000929 -0.613940
v 0.097543 -0.001058 -0.614228
v 0.097543 -0.000929 -0.613940
v -0.007519 -0.001058 -0.614227
v -0.007519 -0.000929 -0.613939
v -0.007519 -0.000850 -0.613632
v -0.007519 -0.000823 -0.613316
v 0.097543 -0.000850 -0.613633
v 0.097543 -0.000823 -0.613316
v 0.146035 -0.000850 -0.613633
v 0.145732 -0.000823 -0.613316
v 0.146035 -0.000850 -0.601570
v 0.145732 -0.000823 -0.601570
v 0.146035 -0.000850 -0.593720
v 0.145732 -0.000823 -0.594037
v 0.097543 -0.000850 -0.593720
v 0.097543 -0.000823 -0.594037
v 0.097543 -0.000823 -0.601570
v -0.007519 -0.000823 -0.601570
vn -0.0000 -1.0000 -0.0000
vn -1.0000 -0.0000 -0.0000
vn -0.0000 -0.0000 -1.0000
vn -0.0000 0.0454 -0.9990
vn -0.0000 0.1806 -0.9836
vn -0.0000 0.1704 -0.9854
vn -0.0000 0.0907 -0.9959
vn 0.9848 0.1737 -0.0000
vn 0.9962 0.0872 -0.0000
vn 0.9866 0.1634 -0.0000
vn 1.0000 -0.0000 -0.0000
vn -0.0000 -0.0000 1.0000
vn -0.0000 0.1806 0.9836
vn -0.0000 0.0909 0.9959
vn -0.0000 0.1704 0.9854
vn -0.0000 0.3544 0.9351
vn -0.0000 0.3360 0.9419
vn 0.9463 0.3233 -0.0000
vn 0.9397 0.3420 -0.0000
vn 0.8795 0.4758 -0.0000
vn 0.8660 0.5000 -0.0000
vn -0.0000 0.5153 0.8570
vn -0.0000 0.4921 0.8706
vn 0.8795 0.4759 -0.0000
vn -0.0000 0.4920 -0.8706
vn -0.0000 0.3361 -0.9418
vn -0.0000 0.3544 -0.9351
vn -0.0000 0.5153 -0.8570
vn -0.0000 0.3545 -0.9351
vn -0.0000 0.6580 -0.7530
vn -0.0000 0.7787 -0.6274
vn -0.0000 0.7556 -0.6550
vn -0.0000 0.6333 -0.7739
vn 0.6428 0.7660 -0.0000
vn 0.7660 0.6428 -0.0000
vn 0.7873 0.6166 -0.0000
vn 0.6716 0.7409 -0.0000
vn -0.0000 0.7787 0.6274
vn -0.0000 0.6581 0.7530
vn -0.0000 0.6334 0.7738
vn -0.0000 0.7555 0.6551
vn -0.0000 0.8746 0.4849
vn -0.0000 0.8553 0.5182
vn -0.0000 0.9440 0.3299
vn 0.1983 0.9614 0.1906
vn 0.5354 0.8446 -0.0000
vn 0.5000 0.8660 -0.0000
vn 0.3420 0.9397 -0.0000
vn 0.1983 0.9614 -0.1906
vn -0.0000 0.8553 -0.5182
vn -0.0000 0.8746 -0.4849
vn -0.0000 0.9440 -0.3299
vn -0.0000 0.9860 -0.1669
vn -0.0000 0.9991 -0.0419
vn 0.0330 0.9990 -0.0312
vn 0.1099 0.9884 -0.1046
vn 0.0436 0.9990 -0.0000
vn 0.1736 0.9848 -0.0000
vn 0.0330 0.9990 0.0311
vn 0.1099 0.9884 0.1046
vn -0.0000 0.9991 0.0419
vn -0.0000 0.9860 0.1669
vn -0.0000 1.0000 -0.0000
vt 0.125000 0.500000
vt 0.125000 0.666602
vt 0.266667 0.666602
vt 0.266667 0.500000
vt 0.375000 0.250000
vt 0.375000 0.391667
vt 0.625000 0.391667
vt 0.625000 0.269035
vt 0.624711 0.265729
vt 0.623853 0.262524
vt 0.622452 0.259517
vt 0.620551 0.256799
vt 0.618207 0.254453
vt 0.615491 0.252550
vt 0.612487 0.251148
vt 0.609285 0.250289
vt 0.605983 0.250000
vt 0.375000 0.083398
vt 0.605983 0.250000
vt 0.605983 0.083398
vt 0.609285 0.083398
vt 0.609285 0.250000
vt 0.605983 1.000000
vt 0.375000 1.000000
vt 0.000000 0.000000
vt 0.609285 0.000044
vt 0.605983 0.000000
vt 0.605983 0.083398
vt 0.609285 0.083398
vt 0.609285 0.858333
vt 0.605983 0.858333
vt 0.609285 0.999711
vt 0.609285 0.750321
vt 0.605983 0.750000
vt 0.605983 0.858333
vt 0.609285 0.858333
vt 0.375000 0.858333
vt 0.375000 0.750000
vt 0.605983 0.666602
vt 0.375000 0.666602
vt 0.733333 0.666602
vt 0.609352 0.666602
vt 0.612763 0.666602
vt 0.616144 0.666602
vt 0.619455 0.666602
vt 0.630666 0.666602
vt 0.634430 0.666602
vt 0.638371 0.666602
vt 0.642312 0.666603
vt 0.646110 0.666602
vt 0.605983 0.666602
vt 0.605983 0.750000
vt 0.609285 0.749956
vt 0.612487 0.749824
vt 0.612487 0.751273
vt 0.612487 0.858333
vt 0.615491 0.752828
vt 0.615491 0.858333
vt 0.615491 0.749609
vt 0.615491 0.858333
vt 0.612487 0.858333
vt 0.612487 0.998852
vt 0.615492 0.997450
vt 0.615491 0.000391
vt 0.612487 0.000176
vt 0.612487 0.083398
vt 0.615491 0.083398
vt 0.615491 0.083398
vt 0.612487 0.083398
vt 0.612487 0.250000
vt 0.615491 0.250000
vt 0.625000 0.083398
vt 0.625000 0.250000
vt 0.868201 0.666602
vt 0.875000 0.666602
vt 0.875000 0.500000
vt 0.868201 0.500000
vt 0.868201 0.748956
vt 0.875000 0.749316
vt 0.625000 0.000684
vt 0.625000 0.858333
vt 0.618207 0.858333
vt 0.618207 0.995547
vt 0.625000 0.993201
vt 0.625000 0.757541
vt 0.618207 0.754939
vt 0.618207 0.858333
vt 0.618207 0.749316
vt 0.632541 0.748956
vt 0.635555 0.748539
vt 0.638890 0.748078
vt 0.733333 0.748539
vt 0.733333 0.748078
vt 0.632541 0.750000
vt 0.733333 0.750000
vt 0.733333 0.748539
vt 0.865483 0.748539
vt 0.862476 0.748078
vt 0.868201 0.750000
vt 0.865483 0.666602
vt 0.862476 0.666602
vt 0.862476 0.666603
vt 0.865483 0.500000
vt 0.862476 0.500000
vt 0.859271 0.666602
vt 0.859271 0.500000
vt 0.855965 0.666602
vt 0.855965 0.500000
vt 0.855965 0.747078
vt 0.859271 0.747586
vt 0.855965 0.666602
vt 0.733333 0.747078
vt 0.733333 0.747586
vt 0.646110 0.747078
vt 0.642444 0.747586
vt 0.733333 0.747078
vt 0.646110 0.666602
vt 0.733333 0.500000
s 1
usemtl Material:Key.132:Normal
f 1/1/1 3/2/1 20/3/1 2/4/1
f 1/5/2 2/6/2 73/7/2 61/8/2 60/9/2 59/10/2 58/11/2 36/12/2 35/13/2 34/14/2 33/15/2 5/16/2 4/17/2
f 3/18/3 1/5/3 4/19/4 6/20/4
f 8/21/5 6/20/4 4/19/4 5/22/5
f 7/23/3 18/24/3 3/25/3 6/20/4
f 10/26/6 9/27/7 6/28/4 8/29/5
f 12/30/8 11/31/9 9/23/9 10/32/10
f 11/31/1 14/31/1 7/23/1 9/23/1
f 24/33/10 13/34/9 11/35/9 12/36/8
f 13/34/1 15/34/1 14/35/1 11/35/1
f 16/37/11 18/24/11 7/23/11 14/31/11
f 17/38/11 16/37/11 14/35/11 15/34/11
f 18/25/1 17/25/1 19/25/1 3/25/1
f 21/39/12 19/40/12 17/25/12 15/34/12
f 72/41/2 20/3/2 19/40/2 21/39/2 22/42/2 23/43/2 47/44/2 45/45/2 46/46/2 48/47/2 49/48/2 70/49/2 71/50/2
f 22/42/13 21/51/14 13/52/14 24/53/15
f 23/43/16 22/42/13 24/53/15 25/54/17
f 25/55/18 24/33/10 12/36/8 27/56/19
f 26/57/20 25/55/18 27/56/19 28/58/21
f 47/44/22 23/43/16 25/54/17 26/59/23
f 28/60/21 27/61/19 29/62/18 30/63/24
f 27/61/19 12/30/8 10/32/10 29/62/18
f 30/64/25 29/65/26 31/66/27 32/67/28
f 29/65/26 10/26/6 8/29/5 31/66/27
f 32/68/28 31/69/27 33/70/29 34/71/28
f 31/69/27 8/21/5 5/22/5 33/70/29
f 37/72/30 32/68/28 34/71/28 35/73/30
f 38/74/31 37/75/30 35/76/30 36/77/31
f 40/78/32 39/79/33 37/75/30 38/74/31
f 39/80/33 30/64/25 32/67/28 37/72/30
f 42/81/34 41/82/35 39/83/36 40/84/37
f 41/82/35 28/60/21 30/63/24 39/83/36
f 44/85/37 43/86/36 41/87/35 42/81/34
f 43/86/36 26/57/20 28/58/21 41/87/35
f 46/46/38 45/45/39 43/88/40 44/89/41
f 45/45/39 47/44/22 26/59/23 43/88/40
f 48/47/42 46/46/38 44/89/41 50/90/43
f 49/48/44 48/47/42 50/90/43 51/91/45
f 51/91/45 50/90/46 52/92/47 53/93/48
f 50/90/46 44/94/37 42/95/34 52/92/47
f 53/93/48 52/96/47 54/97/46 55/98/49
f 52/96/47 42/95/34 40/99/37 54/97/46
f 55/98/49 54/97/50 56/100/51 57/101/52
f 54/97/50 40/78/32 38/74/31 56/100/51
f 57/102/52 56/100/51 58/103/51 59/104/52
f 56/100/51 38/74/31 36/77/31 58/103/51
f 62/105/53 57/102/52 59/104/52 60/106/53
f 63/107/54 62/105/53 60/106/53 61/108/54
f 65/109/55 64/110/56 62/105/53 63/111/54
f 64/110/56 55/98/49 57/101/52 62/105/53
f 67/112/57 66/113/58 64/110/56 65/109/55
f 66/113/58 53/93/48 55/98/49 64/110/56
f 69/114/59 68/115/60 66/113/58 67/116/57
f 68/115/60 51/91/45 53/93/48 66/113/58
f 71/117/61 70/49/62 68/115/60 69/114/59
f 70/49/62 49/48/44 51/91/45 68/115/60
f 71/117/61 69/114/59 67/116/57 72/41/63
f 2/4/12 20/3/12 72/41/12 73/118/12
f 73/118/63 72/41/63 63/107/54 61/108/54
f 72/41/63 67/112/57 65/109/55 63/111/54
