# Blender 4.1.1
# www.blender.org
mtllib 46.mtl
o Key.134
v -0.007519 -0.023823 -0.642940
v 0.097538 -0.023823 -0.642940
v -0.007519 -0.000823 -0.642940
v -0.007519 -0.023823 -0.655601
v 0.097538 -0.023823 -0.655602
v -0.007519 -0.000823 -0.655601
v 0.097538 -0.000823 -0.655601
v 0.097538 -0.000823 -0.660546
v 0.097538 -0.000823 -0.642940
v 0.097538 -0.000823 -0.641358
v 0.145687 -0.000823 -0.641358
v 0.097538 -0.000858 -0.640994
v 0.146037 -0.000858 -0.640994
v 0.097538 -0.000960 -0.640643
v 0.146374 -0.000960 -0.640643
v 0.097538 -0.001126 -0.640320
v 0.146684 -0.001126 -0.640320
v 0.097538 -0.001349 -0.640036
v 0.146956 -0.001349 -0.640037
v 0.097538 -0.001620 -0.639804
v 0.147179 -0.001620 -0.639804
v 0.097538 -0.001931 -0.639631
v 0.147344 -0.001931 -0.639631
v 0.097538 -0.002267 -0.639525
v 0.147447 -0.002267 -0.639525
v 0.097538 -0.002617 -0.639489
v 0.145968 -0.002617 -0.639489
v 0.147481 -0.002617 -0.639489
v 0.097538 -0.023823 -0.639489
v 0.097538 -0.023823 -0.662415
v 0.145968 -0.023823 -0.639489
v 0.145968 -0.023823 -0.649929
v 0.145968 -0.023823 -0.662415
v 0.145968 -0.002617 -0.662415
v 0.097538 -0.002617 -0.662415
v 0.145968 -0.002617 -0.649929
v 0.147481 -0.002617 -0.662415
v 0.147446 -0.002267 -0.662379
v 0.147481 -0.002617 -0.649929
v 0.147447 -0.002267 -0.649929
v 0.147344 -0.001931 -0.649929
v 0.147179 -0.001620 -0.649929
v 0.147344 -0.001931 -0.662273
v 0.147179 -0.001620 -0.662100
v 0.097538 -0.001931 -0.662273
v 0.097538 -0.001620 -0.662100
v 0.097538 -0.002267 -0.662379
v 0.097538 -0.001349 -0.661868
v 0.097538 -0.001126 -0.661584
v 0.146956 -0.001349 -0.661868
v 0.146684 -0.001126 -0.661585
v 0.146956 -0.001349 -0.649929
v 0.146684 -0.001126 -0.649929
v 0.146374 -0.000960 -0.649929
v 0.146037 -0.000858 -0.649929
v 0.146374 -0.000960 -0.661261
v 0.146037 -0.000858 -0.660911
v 0.097538 -0.000960 -0.661261
v 0.097538 -0.000858 -0.660911
v 0.145687 -0.000823 -0.660546
v 0.145687 -0.000823 -0.649929
vn -0.0000 -1.0000 -0.0000
vn -0.0000 -0.0000 1.0000
vn -1.0000 -0.0000 -0.0000
vn -0.0000 -0.0000 -1.0000
vn -0.0000 1.0000 -0.0000
vn 0.0371 0.9987 0.0351
vn -0.0000 0.9989 0.0471
vn -0.0000 0.9822 0.1876
vn 0.1237 0.9853 0.1179
vn -0.0000 0.9989 -0.0471
vn 0.0371 0.9987 -0.0350
vn -0.0000 0.9292 0.3696
vn 0.2234 0.9507 0.2151
vn -0.0000 0.8416 0.5400
vn -0.0000 0.8179 0.5753
vn -0.0000 0.7212 0.6928
vn -0.0000 0.6937 0.7202
vn -0.0000 0.5711 0.8209
vn -0.0000 0.5439 0.8392
vn -0.0000 0.3961 0.9182
vn -0.0000 0.3735 0.9276
vn -0.0000 0.2028 0.9792
vn -0.0000 0.1900 0.9818
vn -0.0000 0.1022 0.9948
vn 1.0000 -0.0000 -0.0000
vn 0.9833 0.1821 -0.0000
vn 0.9808 0.1951 -0.0000
vn 0.9952 0.0980 -0.0000
vn -0.0000 0.2027 -0.9792
vn -0.0000 0.1898 -0.9818
vn -0.0000 0.1018 -0.9948
vn 0.9331 0.3597 -0.0000
vn 0.9239 0.3827 -0.0000
vn 0.9331 0.3596 -0.0000
vn 0.8499 0.5270 -0.0000
vn 0.8315 0.5556 -0.0000
vn -0.0000 0.5711 -0.8209
vn -0.0000 0.5437 -0.8393
vn -0.0000 0.3735 -0.9276
vn -0.0000 0.3959 -0.9183
vn -0.0000 0.7214 -0.6925
vn -0.0000 0.6940 -0.7199
vn -0.0000 0.8416 -0.5401
vn -0.0000 0.8179 -0.5754
vn 0.5928 0.8054 -0.0000
vn 0.5556 0.8315 -0.0000
vn 0.7071 0.7071 -0.0000
vn 0.7353 0.6777 -0.0000
vn 0.2234 0.9507 -0.2152
vn 0.3827 0.9239 -0.0000
vn 0.1237 0.9853 -0.1179
vn 0.1951 0.9808 -0.0000
vn -0.0000 0.9822 -0.1876
vn -0.0000 0.9292 -0.3696
vn 0.0980 0.9952 -0.0000
vt 0.242188 0.500000
vt 0.000000 0.000000
vt 0.242188 0.668545
vt 0.757812 0.668545
vt 0.757812 0.500000
vt 0.641003 0.668545
vt 0.637273 0.668545
vt 0.633836 0.668545
vt 0.625000 0.668545
vt 0.616335 0.668545
vt 0.612964 0.668545
vt 0.609306 0.668545
vt 0.605503 0.668545
vt 0.375000 0.668545
vt 0.644882 0.668545
vt 0.125000 0.668545
vt 0.586005 0.127242
vt 0.594059 0.119923
vt 0.602699 0.116251
vt 0.611604 0.116778
vt 0.620455 0.122315
vt 0.628927 0.133236
vt 0.636676 0.148454
vt 0.643383 0.166580
vt 0.648781 0.186580
vt 0.854016 0.747074
vt 0.854016 0.668545
vt 0.858110 0.668545
vt 0.858110 0.747645
vt 0.644882 0.747074
vt 0.862046 0.668545
vt 0.862046 0.748194
vt 0.865674 0.668545
vt 0.865674 0.748700
vt 0.875000 0.668545
vt 0.875000 0.749143
vt 0.625000 0.000857
vt 0.625000 0.081455
vt 0.616335 0.081455
vt 0.616335 0.000493
vt 0.612964 0.081455
vt 0.612964 0.000223
vt 0.609306 0.081455
vt 0.609306 0.000056
vt 0.605503 0.081455
vt 0.605503 0.000000
vt 0.375000 1.000000
vt 0.605503 1.000000
vt 0.375000 0.750000
vt 0.375000 0.882812
vt 0.605503 0.882812
vt 0.605503 0.668545
vt 0.605503 0.750000
vt 0.605503 0.882812
vt 0.609306 0.750382
vt 0.609306 0.882812
vt 0.609306 0.749944
vt 0.605503 0.750000
vt 0.609306 0.999597
vt 0.612964 0.751513
vt 0.612964 0.882812
vt 0.612964 0.882812
vt 0.612964 0.998403
vt 0.616335 0.753351
vt 0.616335 0.882812
vt 0.616335 0.996464
vt 0.616335 0.749507
vt 0.612964 0.749777
vt 0.625000 0.749143
vt 0.633836 0.748700
vt 0.757812 0.748700
vt 0.757812 0.750000
vt 0.630823 0.750000
vt 0.625000 0.755823
vt 0.625000 0.882812
vt 0.868854 0.750000
vt 0.625000 0.993854
vt 0.637273 0.748194
vt 0.757812 0.748194
vt 0.641003 0.747645
vt 0.757812 0.747645
vt 0.757813 0.747645
vt 0.757812 0.747074
s 1
usemtl Material:Key.135:Normal
f 1/1/1 4/2/1 5/2/1 2/3/1
f 2/3/2 9/4/2 3/5/2 1/1/2
f 6/2/3 4/2/3 1/1/3 3/5/3
f 6/2/4 7/2/4 5/2/4 4/2/4
f 9/4/5 7/2/5 6/2/5 3/5/5
f 59/6/3 58/7/3 49/8/3 48/9/3 46/10/3 45/11/3 47/12/3 35/13/3 30/14/3 5/2/3 7/2/3 8/15/3
f 2/3/3 29/16/3 26/17/3 24/18/3 22/19/3 20/20/3 18/21/3 16/22/3 14/23/3 12/24/3 10/25/3 9/4/3
f 11/26/6 10/27/7 12/28/8 13/29/9
f 8/15/10 10/27/7 11/26/6 60/30/11
f 13/29/9 12/28/8 14/31/12 15/32/13
f 15/32/13 14/31/12 16/33/14 17/34/15
f 17/34/15 16/33/14 18/35/16 19/36/17
f 19/37/17 18/38/16 20/39/18 21/40/19
f 21/40/19 20/39/18 22/41/20 23/42/21
f 23/42/21 22/41/20 24/43/22 25/44/23
f 25/44/23 24/43/22 26/45/24 28/46/24
f 31/47/2 27/48/2 26/17/2 29/16/2
f 29/16/1 30/14/1 33/49/1 31/47/1
f 32/50/25 36/51/25 27/48/25 31/47/25
f 33/49/4 30/14/4 35/52/4 34/53/4
f 33/49/25 34/53/25 36/54/25 32/50/25
f 37/53/1 39/54/1 36/54/1 34/53/1
f 38/55/26 40/56/27 39/54/28 37/53/28
f 47/12/29 38/57/30 37/58/31 35/13/31
f 40/56/27 25/59/26 28/48/28 39/51/28
f 39/51/1 28/48/1 27/48/1 36/51/1
f 43/60/32 41/61/33 40/56/27 38/55/26
f 41/62/33 23/63/34 25/59/26 40/56/27
f 44/64/35 42/65/36 41/61/33 43/60/32
f 42/65/36 21/66/35 23/63/34 41/62/33
f 46/10/37 44/67/38 43/68/39 45/11/40
f 45/11/40 43/68/39 38/57/30 47/12/29
f 48/9/41 50/69/42 44/67/38 46/10/37
f 49/8/43 51/70/44 50/69/42 48/9/41
f 51/70/45 53/71/46 52/72/47 50/73/48
f 50/74/48 52/75/47 42/65/36 44/64/35
f 53/71/46 17/34/45 19/76/48 52/72/47
f 52/75/47 19/77/48 21/66/35 42/65/36
f 56/78/49 54/79/50 53/71/46 51/70/45
f 54/79/50 15/32/13 17/34/45 53/71/46
f 57/80/51 55/81/52 54/79/50 56/78/49
f 55/82/52 13/29/9 15/32/13 54/79/50
f 59/6/53 57/80/51 56/78/49 58/7/54
f 58/7/54 56/78/49 51/70/44 49/8/43
f 8/15/10 60/30/11 57/80/51 59/6/53
f 60/30/11 61/83/55 55/81/52 57/80/51
f 61/83/55 11/26/6 13/29/9 55/82/52
