# Blender 4.1.1
# www.blender.org
mtllib 63.mtl
o Key.151
v -0.007520 -0.023823 -0.875894
v -0.007520 -0.023823 -0.889464
v 0.097542 -0.023823 -0.875895
v -0.007520 -0.002573 -0.875894
v -0.007520 -0.002269 -0.875922
v 0.097542 -0.002573 -0.875895
v 0.145969 -0.002573 -0.875895
v 0.097542 -0.002269 -0.875923
v 0.147480 -0.002573 -0.875895
v 0.147454 -0.002269 -0.875923
v 0.147480 -0.002573 -0.889465
v 0.147454 -0.002269 -0.889465
v 0.147480 -0.002573 -0.898821
v 0.145969 -0.002573 -0.889465
v 0.145969 -0.002573 -0.898821
v 0.145969 -0.023823 -0.889465
v 0.145969 -0.023823 -0.898821
v 0.145969 -0.023823 -0.875895
v 0.097542 -0.023823 -0.898821
v 0.097542 -0.023823 -0.889464
v 0.097542 -0.002573 -0.898821
v 0.097542 -0.002269 -0.898793
v 0.097542 -0.001974 -0.898711
v 0.147454 -0.002269 -0.898794
v 0.147375 -0.001974 -0.898711
v 0.147246 -0.001698 -0.898577
v 0.147375 -0.001974 -0.889465
v 0.147246 -0.001698 -0.889465
v 0.147375 -0.001974 -0.876005
v 0.147246 -0.001698 -0.876139
v 0.097542 -0.001974 -0.876005
v 0.097542 -0.001698 -0.876139
v -0.007520 -0.001974 -0.876004
v -0.007520 -0.001698 -0.876139
v -0.007520 -0.001448 -0.876321
v -0.007520 -0.001233 -0.876546
v 0.097542 -0.001448 -0.876321
v 0.097542 -0.001233 -0.876546
v 0.147071 -0.001448 -0.876322
v 0.146855 -0.001233 -0.876546
v 0.147071 -0.001448 -0.889465
v 0.146855 -0.001233 -0.889465
v 0.147071 -0.001448 -0.898395
v 0.146855 -0.001233 -0.898170
v 0.097542 -0.001448 -0.898394
v 0.097542 -0.001233 -0.898170
v 0.097542 -0.001698 -0.898577
v 0.097542 -0.001058 -0.897909
v 0.097542 -0.000929 -0.897621
v 0.146605 -0.001058 -0.897910
v 0.146329 -0.000929 -0.897622
v 0.146605 -0.001058 -0.889465
v 0.146329 -0.000929 -0.889465
v 0.146605 -0.001058 -0.876807
v 0.146329 -0.000929 -0.877095
v 0.097542 -0.001058 -0.876806
v 0.097542 -0.000929 -0.877095
v -0.007520 -0.001058 -0.876806
v -0.007520 -0.000929 -0.877094
v -0.007520 -0.000850 -0.877401
v -0.007520 -0.000823 -0.877718
v 0.097542 -0.000850 -0.877401
v 0.097542 -0.000823 -0.877718
v 0.146034 -0.000850 -0.877402
v 0.145731 -0.000823 -0.877718
v 0.146034 -0.000850 -0.889465
v 0.145731 -0.000823 -0.889465
v 0.146034 -0.000850 -0.897315
v 0.145731 -0.000823 -0.896998
v 0.097542 -0.000850 -0.897314
v 0.097542 -0.000823 -0.896998
v 0.097542 -0.000823 -0.889464
v -0.007520 -0.000823 -0.889464
vn -0.0000 -1.0000 -0.0000
vn -1.0000 -0.0000 -0.0000
vn -0.0000 -0.0000 1.0000
vn -0.0000 0.0455 0.9990
vn -0.0000 0.0454 0.9990
vn -0.0000 0.1807 0.9835
vn -0.0000 0.1806 0.9836
vn -0.0000 0.1706 0.9853
vn -0.0000 0.0910 0.9959
vn 0.9848 0.1736 -0.0000
vn 0.9866 0.1634 -0.0000
vn 0.9962 0.0872 -0.0000
vn 1.0000 -0.0000 -0.0000
vn -0.0000 -0.0000 -1.0000
vn -0.0000 0.1807 -0.9835
vn -0.0000 0.1705 -0.9854
vn -0.0000 0.0907 -0.9959
vn -0.0000 0.3546 -0.9350
vn -0.0000 0.3362 -0.9418
vn 0.9463 0.3233 -0.0000
vn 0.9397 0.3420 -0.0000
vn 0.8795 0.4759 -0.0000
vn 0.8660 0.5000 -0.0000
vn -0.0000 0.5154 -0.8570
vn -0.0000 0.4921 -0.8705
vn -0.0000 0.4920 0.8706
vn -0.0000 0.5153 0.8570
vn -0.0000 0.3545 0.9351
vn -0.0000 0.3361 0.9418
vn -0.0000 0.5154 0.8570
vn -0.0000 0.3546 0.9350
vn -0.0000 0.6580 0.7530
vn -0.0000 0.7787 0.6274
vn -0.0000 0.7555 0.6552
vn -0.0000 0.6334 0.7738
vn 0.6428 0.7660 -0.0000
vn 0.6716 0.7409 -0.0000
vn 0.7873 0.6166 -0.0000
vn 0.7660 0.6428 -0.0000
vn -0.0000 0.7787 -0.6274
vn -0.0000 0.7555 -0.6551
vn -0.0000 0.6333 -0.7739
vn -0.0000 0.6580 -0.7530
vn -0.0000 0.8746 -0.4849
vn -0.0000 0.8553 -0.5182
vn -0.0000 0.9440 -0.3299
vn 0.1983 0.9614 -0.1906
vn 0.3420 0.9397 -0.0000
vn 0.5000 0.8660 -0.0000
vn 0.5354 0.8446 -0.0000
vn 0.1983 0.9614 0.1906
vn -0.0000 0.9440 0.3299
vn -0.0000 0.8746 0.4849
vn -0.0000 0.8553 0.5181
vn -0.0000 0.9860 0.1669
vn -0.0000 0.9991 0.0419
vn 0.0330 0.9990 0.0311
vn 0.1099 0.9884 0.1046
vn 0.0436 0.9990 -0.0000
vn 0.1736 0.9848 -0.0000
vn 0.0330 0.9990 -0.0311
vn 0.1099 0.9884 -0.1046
vn -0.0000 0.9991 -0.0419
vn -0.0000 0.9860 -0.1669
vn -0.0000 1.0000 -0.0000
vt 0.125000 0.500000
vt 0.266667 0.500000
vt 0.266667 0.666602
vt 0.125000 0.666602
vt 0.375000 0.250000
vt 0.605983 0.250000
vt 0.609285 0.250289
vt 0.612487 0.251148
vt 0.615491 0.252550
vt 0.618207 0.254453
vt 0.620551 0.256799
vt 0.622452 0.259517
vt 0.623853 0.262524
vt 0.624711 0.265729
vt 0.625000 0.269035
vt 0.625000 0.391667
vt 0.375000 0.391667
vt 0.375000 0.083398
vt 0.605983 0.083398
vt 0.605983 0.250000
vt 0.609285 0.083398
vt 0.609285 0.250000
vt 0.605983 1.000000
vt 0.000000 0.000000
vt 0.375000 1.000000
vt 0.609285 0.000044
vt 0.609285 0.083398
vt 0.605983 0.083398
vt 0.605983 0.000000
vt 0.609285 0.858333
vt 0.609285 0.999711
vt 0.605983 0.858333
vt 0.609285 0.750321
vt 0.609285 0.858333
vt 0.605983 0.858333
vt 0.605983 0.750000
vt 0.375000 0.858333
vt 0.375000 0.750000
vt 0.605983 0.666602
vt 0.375000 0.666602
vt 0.733333 0.666602
vt 0.646110 0.666602
vt 0.642312 0.666603
vt 0.638371 0.666602
vt 0.634430 0.666602
vt 0.630666 0.666602
vt 0.619455 0.666602
vt 0.616144 0.666602
vt 0.612763 0.666602
vt 0.609352 0.666602
vt 0.609285 0.749956
vt 0.605983 0.750000
vt 0.605983 0.666602
vt 0.612487 0.749824
vt 0.612487 0.751273
vt 0.612487 0.858333
vt 0.615491 0.752828
vt 0.615491 0.858333
vt 0.615491 0.749609
vt 0.615491 0.858333
vt 0.615492 0.997450
vt 0.612487 0.998852
vt 0.612487 0.858333
vt 0.615491 0.000391
vt 0.615491 0.083398
vt 0.612487 0.083398
vt 0.612487 0.000176
vt 0.615491 0.083398
vt 0.615491 0.250000
vt 0.612487 0.250000
vt 0.612487 0.083398
vt 0.625000 0.083398
vt 0.625000 0.250000
vt 0.868201 0.666602
vt 0.868201 0.500000
vt 0.875000 0.500000
vt 0.875000 0.666602
vt 0.868201 0.748956
vt 0.875000 0.749316
vt 0.625000 0.000684
vt 0.625000 0.858333
vt 0.625000 0.993201
vt 0.618207 0.995547
vt 0.618207 0.858333
vt 0.625000 0.757541
vt 0.618207 0.858333
vt 0.618207 0.754939
vt 0.632541 0.748956
vt 0.618207 0.749316
vt 0.635555 0.748539
vt 0.638890 0.748078
vt 0.733333 0.748078
vt 0.733333 0.748539
vt 0.733333 0.750000
vt 0.632541 0.750000
vt 0.862476 0.748078
vt 0.865483 0.748539
vt 0.733333 0.748539
vt 0.868201 0.750000
vt 0.862476 0.666602
vt 0.865483 0.666602
vt 0.862476 0.666603
vt 0.862476 0.500000
vt 0.865483 0.500000
vt 0.859271 0.666602
vt 0.859271 0.500000
vt 0.855965 0.666602
vt 0.855965 0.500000
vt 0.855965 0.747078
vt 0.855965 0.666602
vt 0.859271 0.747586
vt 0.733333 0.747078
vt 0.733333 0.747586
vt 0.646110 0.747078
vt 0.733333 0.747078
vt 0.642444 0.747586
vt 0.646110 0.666602
vt 0.733333 0.500000
s 1
usemtl Material:Key.152:Normal
f 1/1/1 2/2/1 20/3/1 3/4/1
f 1/5/2 4/6/2 5/7/2 33/8/2 34/9/2 35/10/2 36/11/2 58/12/2 59/13/2 60/14/2 61/15/2 73/16/2 2/17/2
f 3/18/3 6/19/4 4/20/5 1/5/3
f 8/21/6 5/22/7 4/20/5 6/19/4
f 7/23/3 6/19/4 3/24/3 18/25/3
f 10/26/8 8/27/6 6/28/4 9/29/9
f 12/30/10 10/31/11 9/23/12 11/32/12
f 11/32/1 9/23/1 7/23/1 14/32/1
f 24/33/11 12/34/10 11/35/12 13/36/12
f 13/36/1 11/35/1 14/35/1 15/36/1
f 16/37/13 14/32/13 7/23/13 18/25/13
f 17/38/13 15/36/13 14/35/13 16/37/13
f 18/24/1 3/24/1 19/24/1 17/24/1
f 21/39/14 15/36/14 17/24/14 19/40/14
f 72/41/2 71/42/2 70/43/2 49/44/2 48/45/2 46/46/2 45/47/2 47/48/2 23/49/2 22/50/2 21/39/2 19/40/2 20/3/2
f 22/50/15 24/51/16 13/52/17 21/53/17
f 23/49/18 25/54/19 24/51/16 22/50/15
f 25/55/20 27/56/21 12/34/10 24/33/11
f 26/57/22 28/58/23 27/56/21 25/55/20
f 47/48/24 26/59/25 25/54/19 23/49/18
f 28/60/23 30/61/22 29/62/20 27/63/21
f 27/63/21 29/62/20 10/31/11 12/30/10
f 30/64/26 32/65/27 31/66/28 29/67/29
f 29/67/29 31/66/28 8/27/6 10/26/8
f 32/68/27 34/69/30 33/70/31 31/71/28
f 31/71/28 33/70/31 5/22/7 8/21/6
f 37/72/32 35/73/32 34/69/30 32/68/27
f 38/74/33 36/75/33 35/76/32 37/77/32
f 40/78/34 38/74/33 37/77/32 39/79/35
f 39/80/35 37/72/32 32/65/27 30/64/26
f 42/81/36 40/82/37 39/83/38 41/84/39
f 41/84/39 39/83/38 30/61/22 28/60/23
f 44/85/37 42/81/36 41/86/39 43/87/38
f 43/87/38 41/86/39 28/58/23 26/57/22
f 46/46/40 44/88/41 43/89/42 45/47/43
f 45/47/43 43/89/42 26/59/25 47/48/24
f 48/45/44 50/90/45 44/88/41 46/46/40
f 49/44/46 51/91/47 50/90/45 48/45/44
f 51/91/47 53/92/48 52/93/49 50/90/50
f 50/90/50 52/93/49 42/94/36 44/95/37
f 53/92/48 55/96/51 54/97/50 52/98/49
f 52/98/49 54/97/50 40/99/37 42/94/36
f 55/96/51 57/100/52 56/101/53 54/97/54
f 54/97/54 56/101/53 38/74/33 40/78/34
f 57/102/52 59/103/52 58/104/53 56/101/53
f 56/101/53 58/104/53 36/75/33 38/74/33
f 62/105/55 60/106/55 59/103/52 57/102/52
f 63/107/56 61/108/56 60/106/55 62/105/55
f 65/109/57 63/110/56 62/105/55 64/111/58
f 64/111/58 62/105/55 57/100/52 55/96/51
f 67/112/59 65/109/57 64/111/58 66/113/60
f 66/113/60 64/111/58 55/96/51 53/92/48
f 69/114/61 67/115/59 66/113/60 68/116/62
f 68/116/62 66/113/60 53/92/48 51/91/47
f 71/117/63 69/114/61 68/116/62 70/43/64
f 70/43/64 68/116/62 51/91/47 49/44/46
f 71/117/63 72/41/65 67/115/59 69/114/61
f 2/2/14 73/118/14 72/41/14 20/3/14
f 73/118/65 61/108/56 63/107/56 72/41/65
f 72/41/65 63/110/56 65/109/57 67/112/59
