# Blender 4.1.1
# www.blender.org
mtllib 87.mtl
o Key.175
v 0.145967 -0.002601 -1.229817
v -0.007521 -0.002601 -1.229817
v 0.147479 -0.002601 -1.229817
v 0.145967 -0.023823 -1.229817
v 0.145967 -0.002601 -1.206891
v 0.145967 -0.023823 -1.206891
v -0.007521 -0.002601 -1.206891
v 0.147479 -0.002601 -1.206891
v 0.147445 -0.002255 -1.206927
v 0.147344 -0.001921 -1.207032
v -0.007521 -0.002255 -1.206926
v 0.147445 -0.002255 -1.229782
v 0.147344 -0.001921 -1.229676
v -0.007521 -0.002255 -1.229781
v -0.007521 -0.001921 -1.229676
v -0.007521 -0.001614 -1.229505
v -0.007521 -0.001344 -1.229274
v 0.147179 -0.001614 -1.229505
v 0.146958 -0.001344 -1.229275
v 0.147179 -0.001614 -1.207203
v 0.146958 -0.001344 -1.207434
v -0.007521 -0.001614 -1.207203
v -0.007521 -0.001344 -1.207433
v -0.007521 -0.001921 -1.207032
v -0.007521 -0.001123 -1.207714
v -0.007521 -0.000959 -1.208035
v 0.146689 -0.001123 -1.207715
v 0.146381 -0.000959 -1.208035
v 0.146689 -0.001123 -1.228994
v 0.146381 -0.000959 -1.228673
v -0.007521 -0.001123 -1.228993
v -0.007521 -0.000959 -1.228673
v -0.007521 -0.000857 -1.228325
v -0.007521 -0.000823 -1.227964
v 0.146048 -0.000857 -1.228326
v 0.145701 -0.000823 -1.227964
v 0.146048 -0.000857 -1.208383
v 0.145701 -0.000823 -1.208744
v -0.007521 -0.000857 -1.208382
v -0.007521 -0.000823 -1.208744
v -0.007521 -0.023823 -1.206891
v -0.007521 -0.023823 -1.229817
vn -0.0000 -0.0000 -1.0000
vn -0.0000 -1.0000 -0.0000
vn 1.0000 -0.0000 -0.0000
vn -0.0000 -0.0000 1.0000
vn 0.9833 0.1821 -0.0000
vn 0.9952 0.0980 -0.0000
vn -0.0000 0.1899 0.9818
vn -0.0000 0.2027 0.9792
vn -0.0000 0.1023 0.9948
vn 0.9331 0.3596 -0.0000
vn -0.0000 0.3734 0.9277
vn -0.0000 0.3960 0.9182
vn -0.0000 0.3960 -0.9182
vn -0.0000 0.3735 -0.9276
vn -0.0000 0.1899 -0.9818
vn -0.0000 0.2027 -0.9792
vn -0.0000 0.1020 -0.9948
vn -1.0000 -0.0000 -0.0000
vn -0.0000 0.5711 -0.8209
vn -0.0000 0.5438 -0.8392
vn -0.0000 0.7212 -0.6927
vn -0.0000 0.6938 -0.7202
vn 0.7353 0.6777 -0.0000
vn 0.8499 0.5270 -0.0000
vn -0.0000 0.6938 0.7202
vn -0.0000 0.7212 0.6927
vn -0.0000 0.5712 0.8208
vn -0.0000 0.5439 0.8391
vn -0.0000 0.8179 0.5753
vn -0.0000 0.8416 0.5400
vn 0.2234 0.9507 0.2152
vn -0.0000 0.9292 0.3696
vn 0.2234 0.9507 -0.2151
vn 0.5928 0.8054 -0.0000
vn -0.0000 0.9292 -0.3696
vn -0.0000 0.8180 -0.5753
vn -0.0000 0.8417 -0.5400
vn -0.0000 0.9822 -0.1877
vn 0.1237 0.9853 -0.1179
vn -0.0000 0.9989 -0.0471
vn 0.0371 0.9987 -0.0350
vn 0.0371 0.9987 0.0350
vn 0.1237 0.9853 0.1179
vn -0.0000 0.9989 0.0471
vn -0.0000 0.9822 0.1876
vt 0.605672 0.500000
vt 0.605672 0.750000
vt 0.375000 0.750000
vt 0.375000 0.500000
vt 0.605672 1.000000
vt 0.375000 1.000000
vt 0.375000 0.250000
vt 0.605672 0.250000
vt 0.609443 0.750388
vt 0.609443 0.999612
vt 0.609443 0.000055
vt 0.609442 0.250000
vt 0.605672 0.000000
vt 0.613068 0.751538
vt 0.613068 0.998462
vt 0.613068 0.000218
vt 0.613068 0.250000
vt 0.613068 0.500000
vt 0.613068 0.749782
vt 0.609443 0.749945
vt 0.609443 0.500000
vt 0.605672 0.500000
vt 0.609443 0.250388
vt 0.613068 0.251538
vt 0.616410 0.253405
vt 0.619339 0.255918
vt 0.621743 0.258980
vt 0.623529 0.262474
vt 0.624629 0.266265
vt 0.625000 0.270207
vt 0.625000 0.479793
vt 0.624629 0.483735
vt 0.623529 0.487526
vt 0.621743 0.491019
vt 0.619339 0.494082
vt 0.616410 0.496595
vt 0.613068 0.498462
vt 0.609443 0.499612
vt 0.616410 0.500000
vt 0.616410 0.749517
vt 0.625000 0.500000
vt 0.625000 0.749160
vt 0.625000 0.755918
vt 0.625000 0.994082
vt 0.616410 0.996595
vt 0.616410 0.753405
vt 0.625000 0.000840
vt 0.625000 0.250000
vt 0.616410 0.250000
vt 0.616410 0.000483
vt 0.866020 0.748725
vt 0.866020 0.500000
vt 0.875000 0.500000
vt 0.875000 0.749160
vt 0.862526 0.748230
vt 0.862526 0.500000
vt 0.637474 0.748230
vt 0.633980 0.748725
vt 0.869082 0.750000
vt 0.630918 0.750000
vt 0.637474 0.500000
vt 0.633981 0.500000
vt 0.641265 0.500000
vt 0.641265 0.747692
vt 0.645207 0.500000
vt 0.645207 0.747132
vt 0.854793 0.747132
vt 0.858735 0.747691
vt 0.854793 0.500000
vt 0.858735 0.500000
s 1
usemtl Material:Key.176:Normal
f 2/1/1 1/2/1 4/3/1 42/4/1
f 3/2/2 8/5/2 5/5/2 1/2/2
f 4/3/3 1/2/3 5/5/3 6/6/3
f 41/7/4 6/6/4 5/5/4 7/8/4
f 12/9/5 9/10/5 8/5/6 3/2/6
f 9/11/7 11/12/8 7/8/9 8/13/9
f 13/14/10 10/15/10 9/10/5 12/9/5
f 10/16/11 24/17/12 11/12/8 9/11/7
f 15/18/13 13/19/14 12/20/15 14/21/16
f 14/21/16 12/20/15 3/2/17 2/22/17
f 41/7/18 7/8/18 11/23/18 24/24/18 22/25/18 23/26/18 25/27/18 26/28/18 39/29/18 40/30/18 34/31/18 33/32/18 32/33/18 31/34/18 17/35/18 16/36/18 15/37/18 14/38/18 2/1/18 42/4/18
f 16/39/19 18/40/20 13/19/14 15/18/13
f 17/41/21 19/42/22 18/40/20 16/39/19
f 19/43/23 21/44/23 20/45/24 18/46/24
f 18/46/24 20/45/24 10/15/10 13/14/10
f 21/47/25 23/48/26 22/49/27 20/50/28
f 20/50/28 22/49/27 24/17/12 10/16/11
f 27/51/29 25/52/30 23/53/26 21/54/25
f 28/55/31 26/56/32 25/52/30 27/51/29
f 30/57/33 28/55/31 27/51/34 29/58/34
f 29/58/34 27/51/34 21/59/23 19/60/23
f 32/61/35 30/57/33 29/58/36 31/62/37
f 31/62/37 29/58/36 19/42/22 17/41/21
f 33/63/38 35/64/39 30/57/33 32/61/35
f 34/65/40 36/66/41 35/64/39 33/63/38
f 36/66/41 38/67/42 37/68/43 35/64/39
f 35/64/39 37/68/43 28/55/31 30/57/33
f 38/67/42 40/69/44 39/70/45 37/68/43
f 37/68/43 39/70/45 26/56/32 28/55/31
f 34/65/40 40/69/44 38/67/42 36/66/41
f 41/7/2 42/4/2 4/3/2 6/6/2
